# Blender v2.82 (sub 7) OBJ File: ''
# www.blender.org
mtllib Lampert.mtl
o Cube
v 1.384012 4.752077 -2.120482
v 1.384012 3.624596 -2.120482
v 1.384012 4.752077 0.517368
v 1.384012 3.624596 0.517368
v -1.671133 4.752077 -2.120482
v -1.671133 3.624596 -2.120482
v -1.671133 4.752077 0.517368
v -1.671133 3.624596 0.517368
v -1.519040 3.345414 -1.989163
v -1.519040 3.345414 0.386049
v 1.231919 3.345414 -1.989163
v 1.231919 3.345414 0.386049
v -1.519040 3.087284 -1.989163
v -1.519040 3.087284 0.386049
v 1.231919 3.087284 -1.989163
v 1.231919 3.087284 0.386049
v 1.159263 9.851324 0.323317
v -1.446384 9.851324 0.323317
v 1.159263 9.851324 -1.926431
v -1.446384 9.851324 -1.926431
v -1.446384 5.536605 -1.926431
v 1.159263 5.536605 -1.926431
v 1.159263 5.536605 0.323317
v -1.446384 5.536605 0.323317
v -1.717026 10.593351 -2.043997
v -1.730186 11.720617 -2.061563
v -1.639430 10.635341 0.592377
v -1.652590 11.762608 0.574810
v 1.336589 10.627590 -2.134419
v 1.323429 11.754856 -2.151986
v 1.414185 10.669580 0.501954
v 1.401025 11.796846 0.484387
v 1.172016 12.034372 -2.020589
v 1.241887 12.072181 0.353294
v -1.577564 12.003542 -1.939170
v -1.507694 12.041350 0.434714
v 1.169003 12.292453 -2.024611
v 1.238873 12.330261 0.349272
v -1.580577 12.261622 -1.943191
v -1.510707 12.299432 0.430692
v 1.126818 9.843781 -1.921602
v -1.477523 9.814579 -1.844483
v -1.411345 9.850391 0.404005
v 1.192997 9.879593 0.326886
vt 0.625000 0.500000
vt 0.625000 0.250000
vt 0.625000 0.250000
vt 0.625000 0.500000
vt 0.375000 0.750000
vt 0.625000 0.750000
vt 0.625000 1.000000
vt 0.375000 1.000000
vt 0.375000 0.000000
vt 0.625000 0.000000
vt 0.625000 0.250000
vt 0.375000 0.250000
vt 0.375000 0.500000
vt 0.375000 0.500000
vt 0.375000 0.250000
vt 0.625000 0.500000
vt 0.375000 0.000000
vt 0.375000 0.250000
vt 0.375000 0.000000
vt 0.375000 1.000000
vt 0.375000 0.750000
vt 0.125000 0.500000
vt 0.375000 0.500000
vt 0.375000 0.750000
vt 0.125000 0.750000
vt 0.375000 1.000000
vt 0.875000 0.500000
vt 0.875000 0.750000
vt 0.625000 0.750000
vt 0.625000 1.000000
vt 0.625000 0.750000
vt 0.625000 1.000000
vt 0.625000 0.000000
vt 0.625000 0.000000
vt 0.375000 0.750000
vt 0.625000 0.750000
vt 0.625000 1.000000
vt 0.375000 1.000000
vt 0.375000 0.000000
vt 0.625000 0.000000
vt 0.625000 0.250000
vt 0.375000 0.250000
vt 0.375000 0.500000
vt 0.375000 0.500000
vt 0.375000 0.250000
vt 0.625000 0.500000
vt 0.375000 0.000000
vt 0.375000 0.250000
vt 0.375000 0.000000
vt 0.375000 1.000000
vt 0.375000 0.750000
vt 0.375000 0.750000
vt 0.375000 0.500000
vt 0.375000 1.000000
vt 0.625000 0.500000
vt 0.625000 0.750000
vt 0.625000 0.000000
vt 0.625000 0.250000
vt 0.625000 1.000000
vn 0.0000 0.0000 -1.0000
vn 0.0000 0.0000 1.0000
vn -1.0000 0.0000 0.0000
vn 0.0000 -0.4256 -0.9049
vn 1.0000 0.0000 0.0000
vn 0.0000 -0.4256 0.9049
vn -0.8781 -0.4784 0.0000
vn 0.8781 -0.4784 0.0000
vn 0.0000 -1.0000 0.0000
vn 0.0000 1.0000 0.0000
vn 0.9613 0.2754 0.0000
vn -0.9613 0.2754 0.0000
vn 0.0000 0.2401 0.9707
vn 0.0000 0.2401 -0.9707
vn 0.0294 0.0159 0.9994
vn 0.9995 0.0112 -0.0296
vn -0.0316 0.4111 -0.9110
vn -0.9995 -0.0112 0.0296
vn -0.0294 -0.0159 -0.9994
vn 0.0217 0.4400 0.8978
vn 0.8721 0.4881 -0.0334
vn -0.8833 0.4685 0.0185
vn -0.9576 -0.2861 0.0327
vn 0.9641 -0.2646 -0.0242
vn 0.0314 -0.2246 0.9739
vn -0.0258 -0.2555 -0.9665
vn -0.0117 0.9998 -0.0156
vn 0.0117 -0.9998 0.0156
usemtl Material
s off
f 22/1/1 21/2/1 20/3/1 19/4/1
f 4/5/2 3/6/2 7/7/2 8/8/2
f 8/9/3 7/10/3 5/11/3 6/12/3
f 6/12/4 2/13/4 11/14/4 9/15/4
f 2/13/5 1/16/5 3/6/5 4/5/5
f 6/12/1 5/11/1 1/16/1 2/13/1
f 10/17/3 9/15/3 13/18/3 14/19/3
f 4/5/6 8/8/6 10/20/6 12/21/6
f 8/9/7 6/12/7 9/15/7 10/17/7
f 2/13/8 4/5/8 12/21/8 11/14/8
f 13/22/9 15/23/9 16/24/9 14/25/9
f 11/14/5 12/21/5 16/24/5 15/23/5
f 9/15/1 11/14/1 15/23/1 13/18/1
f 12/21/2 10/20/2 14/26/2 16/24/2
f 19/4/10 20/27/10 18/28/10 17/29/10
f 24/30/2 23/31/2 17/29/2 18/32/2
f 21/2/3 24/33/3 18/34/3 20/3/3
f 23/31/5 22/1/5 19/4/5 17/29/5
f 3/6/11 1/16/11 22/1/11 23/31/11
f 5/11/12 7/10/12 24/33/12 21/2/12
f 7/7/13 3/6/13 23/31/13 24/30/13
f 1/16/14 5/11/14 21/2/14 22/1/14
f 28/35/15 27/36/15 31/37/15 32/38/15
f 32/39/16 31/40/16 29/41/16 30/42/16
f 30/42/17 26/43/17 35/44/17 33/45/17
f 26/43/18 25/46/18 27/36/18 28/35/18
f 30/42/19 29/41/19 25/46/19 26/43/19
f 34/47/16 33/45/16 37/48/16 38/49/16
f 28/35/20 32/38/20 34/50/20 36/51/20
f 32/39/21 30/42/21 33/45/21 34/47/21
f 26/43/22 28/35/22 36/51/22 35/44/22
f 35/44/18 36/51/18 40/52/18 39/53/18
f 33/45/19 35/44/19 39/53/19 37/48/19
f 36/51/15 34/50/15 38/54/15 40/52/15
f 27/36/23 25/46/23 42/55/23 43/56/23
f 29/41/24 31/40/24 44/57/24 41/58/24
f 31/37/25 27/36/25 43/56/25 44/59/25
f 25/46/26 29/41/26 41/58/26 42/55/26
f 37/48/27 39/53/27 40/52/27 38/54/27
f 42/55/28 41/58/28 44/57/28 43/56/28
