# Blender v2.82 (sub 7) OBJ File: ''
# www.blender.org
mtllib Monitor.mtl
o Plane
v 1.000000 0.000000 1.000000
v 1.000000 0.000000 -1.000000
v -0.454723 2.106753 1.000000
v -0.454723 2.106753 -1.000000
v 0.158870 0.000000 1.000000
v -0.709626 1.121901 1.000000
v -0.037955 0.017044 1.000000
v -0.219975 0.067659 1.000000
v -0.381662 0.150306 1.000000
v -0.518103 0.262475 1.000000
v -0.625151 0.400757 1.000000
v -0.699554 0.560950 1.000000
v -0.739051 0.738188 1.000000
v -0.742443 0.927085 1.000000
v -0.709626 1.121901 -1.000000
v 0.158870 0.000000 -1.000000
v -0.742443 0.927085 -1.000000
v -0.739051 0.738188 -1.000000
v -0.699554 0.560950 -1.000000
v -0.625151 0.400757 -1.000000
v -0.518103 0.262475 -1.000000
v -0.381662 0.150306 -1.000000
v -0.219975 0.067659 -1.000000
v -0.037955 0.017044 -1.000000
vt 0.579435 0.000000
vt 1.000000 0.000000
vt 1.000000 1.000000
vt 0.579435 1.000000
vt 0.000000 1.000000
vt 0.000000 0.000000
vt 0.000000 0.000000
vt 0.000000 1.000000
vt 0.000000 0.000000
vt 0.000000 1.000000
vt 0.000000 0.000000
vt 0.000000 1.000000
vt 0.000000 0.000000
vt 0.000000 1.000000
vt 0.240949 0.000000
vt 0.240949 1.000000
vt 0.309169 0.000000
vt 0.309169 1.000000
vt 0.390012 0.000000
vt 0.390012 1.000000
vt 0.481023 0.000000
vt 0.481023 1.000000
vt 0.000000 1.000000
vt 0.000000 0.000000
vn 0.0432 0.9991 0.0000
vn 0.0000 1.0000 0.0000
vn 0.9780 -0.2085 0.0000
vn 0.9972 -0.0744 0.0000
vn 0.9930 0.1183 0.0000
vn 0.9470 0.3212 0.0000
vn 0.8542 0.5199 0.0000
vn 0.7174 0.6966 0.0000
vn 0.5483 0.8363 0.0000
vn 0.3634 0.9316 0.0000
vn 0.1778 0.9840 0.0000
vn 0.9681 -0.2506 0.0000
usemtl None
s 1
f 5/1/1 1/2/2 2/3/2 16/4/1
f 15/5/3 6/6/3 14/7/4 17/8/4
f 17/8/4 14/7/4 13/9/5 18/10/5
f 18/10/5 13/9/5 12/11/6 19/12/6
f 19/12/6 12/11/6 11/13/7 20/14/7
f 20/14/7 11/13/7 10/15/8 21/16/8
f 21/16/8 10/15/8 9/17/9 22/18/9
f 22/18/9 9/17/9 8/19/10 23/20/10
f 23/20/10 8/19/10 7/21/11 24/22/11
f 24/22/11 7/21/11 5/1/1 16/4/1
f 6/6/3 15/5/3 4/23/12 3/24/12
o Plane.001
v -0.570802 3.381181 2.361038
v 0.022344 0.834265 2.361038
v -0.570802 3.381181 -2.361038
v 0.022344 0.834265 -2.361038
v -0.694502 3.352373 -2.361038
v -0.694502 3.352373 2.361038
v -0.101355 0.805457 2.361038
v -0.101355 0.805457 -2.361038
vt 0.000000 0.000000
vt 0.000000 1.000000
vt 1.000000 1.000000
vt 1.000000 0.000000
vt 0.000000 0.000000
vt 1.000000 0.000000
vt 1.000000 1.000000
vt 0.000000 1.000000
vn -0.9739 -0.2268 0.0000
vn 0.9739 0.2268 0.0000
vn 0.0000 0.0000 1.0000
vn 0.0000 0.0000 -1.0000
vn -0.2268 0.9739 0.0000
vn 0.2268 -0.9739 0.0000
usemtl None
s off
f 25/25/13 27/26/13 28/27/13 26/28/13
f 30/29/14 31/30/14 32/31/14 29/32/14
f 28/27/15 27/26/15 29/32/15 32/31/15
f 25/25/16 26/28/16 31/30/16 30/29/16
f 26/28/17 28/27/17 32/31/17 31/30/17
f 27/26/18 25/25/18 30/29/18 29/32/18
