# Blender v2.82 (sub 7) OBJ File: ''
# www.blender.org
mtllib MountainSilouhette.mtl
o Cube
v 16.075148 -1.181601 -16.075146
v 16.075146 -1.181601 16.075146
v -16.075146 -1.181601 -16.075146
v -16.075146 -1.181601 16.075146
v -18.419954 -1.362138 -9.537382
v -19.597784 -1.452825 -0.000001
v -18.419954 -1.362138 9.537382
v 9.537383 -1.362139 -18.419954
v 0.000000 -1.452825 -19.597784
v -9.537382 -1.362138 -18.419952
v 19.074339 0.243429 -19.074337
v 19.597784 0.056094 -19.597786
v 18.419954 -0.678230 -18.419954
v -18.419954 -0.678230 18.419954
v -19.597784 0.056094 19.597786
v -19.074337 0.243429 19.074337
v 19.074337 0.243429 19.074339
v 19.597786 0.056094 19.597784
v 18.419954 -0.678230 18.419954
v -19.074337 0.243429 -19.074337
v -19.597786 0.056094 -19.597784
v -18.419954 -0.678230 -18.419954
v -9.537383 -1.362138 18.419958
v -0.000000 -1.452825 19.597784
v 9.537382 -1.362138 18.419954
v 18.419954 -1.362139 9.537382
v 19.597784 -1.452825 0.000000
v 18.419958 -1.362138 -9.537382
v 10.164543 -0.726518 23.437237
v 10.710564 0.056094 25.136023
v 10.525644 0.243429 24.269861
v -0.000000 -0.768559 25.136021
v 0.000000 0.056094 26.990370
v 0.000000 0.243429 26.028996
v -10.164543 -0.726518 23.437237
v -10.710564 0.056094 25.136023
v -10.525645 0.243429 24.269859
v -23.437237 -0.726518 10.164542
v -25.136023 0.056094 10.710563
v -24.269861 0.243429 10.525644
v -25.136021 -0.768559 -0.000001
v -26.990370 0.056094 -0.000000
v -26.028994 0.243429 0.000000
v -23.437237 -0.726518 -10.164543
v -25.136023 0.056094 -10.710564
v -24.269859 0.243429 -10.525645
v -10.164543 -1.748441 -10.164543
v -0.000000 -1.879238 -10.710564
v 10.164543 -1.748441 -10.164542
v -10.710564 -1.879238 0.000000
v -0.000000 -2.022012 0.000000
v 10.710564 -1.879238 -0.000000
v -10.164542 -1.748441 10.164543
v 0.000000 -1.879238 10.710564
v 10.164543 -1.748441 10.164543
v 23.437237 -0.726518 -10.164543
v 25.136023 0.056094 -10.710564
v 24.269861 0.243429 -10.525644
v 25.136023 -0.768559 0.000000
v 26.990370 0.056094 -0.000000
v 26.028996 0.243429 -0.000000
v 23.437237 -0.726518 10.164543
v 25.136023 0.056095 10.710564
v 24.269859 0.243429 10.525645
v -10.164542 -0.726518 -23.437237
v -10.710563 0.056094 -25.136023
v -10.525644 0.243429 -24.269861
v 0.000001 -0.768559 -25.136021
v 0.000000 0.056094 -26.990370
v -0.000000 0.243429 -26.028996
v 10.164543 -0.726518 -23.437237
v 10.710564 0.056095 -25.136023
v 10.525645 0.243429 -24.269859
v 6.654960 40.184780 -6.654960
v 7.485153 40.184772 -7.485153
v -7.485153 40.184772 7.485153
v -6.654960 40.184780 6.654960
v 6.654957 40.184780 6.654960
v 7.485153 40.184772 7.485153
v -6.654960 40.184780 -6.654960
v -7.485153 40.184772 -7.485153
v 3.948386 40.184780 7.625690
v 0.000000 40.184780 8.113300
v -3.948386 40.184780 7.625688
v 7.625687 40.184780 -3.948385
v 8.113298 40.184780 0.000000
v 7.625687 40.184780 3.948386
v -7.625687 40.184780 3.948386
v -8.113298 40.184780 0.000000
v -7.625687 40.184780 -3.948385
v -3.948386 40.184780 -7.625687
v 0.000000 40.184780 -8.113299
v 3.948386 40.184780 -7.625687
v 4.208025 40.184780 -4.208025
v 0.000000 40.184780 -4.434073
v -4.208025 40.184780 -4.208025
v 4.434072 40.184780 0.000001
v 0.000000 40.184780 0.000000
v -4.434072 40.184780 0.000000
v 4.208025 40.184780 4.208025
v 0.000000 40.184780 4.434071
v -4.208025 40.184780 4.208025
v 4.050935 40.184772 9.779824
v -0.000001 40.184772 10.585605
v -4.050936 40.184772 9.779823
v -9.779824 40.184772 4.050935
v -10.585605 40.184772 -0.000001
v -9.779823 40.184772 -4.050936
v 9.779824 40.184772 -4.050935
v 10.585605 40.184772 0.000001
v 9.779823 40.184772 4.050936
v -4.050934 40.184772 -9.779824
v 0.000001 40.184772 -10.585605
v 4.050937 40.184772 -9.779823
vt 0.429579 0.821045
vt 0.500000 0.817491
vt 0.500000 0.876736
vt 0.434896 0.877821
vt 0.570421 0.821045
vt 0.565104 0.877821
vt 0.500000 0.937717
vt 0.437174 0.937853
vt 0.562826 0.937853
vt 0.333333 0.791667
vt 0.425456 0.762912
vt 0.357422 0.830078
vt 0.500000 0.756944
vt 0.574544 0.762912
vt 0.565104 0.877821
vt 0.562826 0.937853
vt 0.570421 0.428955
vt 0.565104 0.372179
vt 0.565104 0.372179
vt 0.570421 0.428955
vt 0.570258 0.695258
vt 0.570258 0.695258
vt 0.574544 0.762912
vt 0.562500 0.062500
vt 0.562500 0.000000
vt 0.562500 0.000000
vt 0.562500 0.062500
vt 0.562500 1.000000
vt 0.500000 1.000000
vt 0.437500 1.000000
vt 0.374349 0.938151
vt 0.375000 1.000000
vt 0.369792 0.880208
vt 0.437500 0.062500
vt 0.500000 0.062500
vt 0.500000 0.125000
vt 0.437500 0.125000
vt 0.562500 0.125000
vt 0.500000 0.187500
vt 0.437500 0.187500
vt 0.562500 0.187500
vt 0.375000 0.000000
vt 0.437500 0.000000
vt 0.375000 0.062500
vt 0.500000 0.000000
vt 0.567274 0.625000
vt 0.567274 0.625000
vt 0.570421 0.821045
vt 0.562826 0.312147
vt 0.562500 0.250000
vt 0.562500 0.250000
vt 0.562826 0.312147
vt 0.562500 0.125000
vt 0.500000 0.250000
vt 0.437500 0.250000
vt 0.375000 0.187500
vt 0.375000 0.250000
vt 0.375000 0.125000
vt 0.187147 0.562174
vt 0.247179 0.559896
vt 0.248264 0.625000
vt 0.187283 0.625000
vt 0.303955 0.554579
vt 0.307509 0.625000
vt 0.247179 0.690104
vt 0.187147 0.687826
vt 0.303955 0.695421
vt 0.125000 0.500000
vt 0.186849 0.499349
vt 0.125000 0.562500
vt 0.244792 0.494792
vt 0.294922 0.482422
vt 0.333333 0.458333
vt 0.362088 0.550456
vt 0.368056 0.625000
vt 0.362088 0.699544
vt 0.294922 0.767578
vt 0.244792 0.755208
vt 0.186849 0.750651
vt 0.125000 0.687500
vt 0.125000 0.750000
vt 0.125000 0.625000
vt 0.429742 0.554742
vt 0.500000 0.557726
vt 0.500000 0.625000
vt 0.432726 0.625000
vt 0.570258 0.554742
vt 0.500000 0.692274
vt 0.429742 0.695258
vt 0.425456 0.487088
vt 0.500000 0.493056
vt 0.574544 0.487088
vt 0.562500 0.187500
vt 0.574544 0.487088
vt 0.570258 0.554742
vt 0.437174 0.312147
vt 0.500000 0.312283
vt 0.500000 0.373264
vt 0.434896 0.372179
vt 0.500000 0.432509
vt 0.429579 0.428955
vt 0.374349 0.311849
vt 0.562500 1.000000
vt 0.357422 0.419922
vt 0.369792 0.369792
vt 0.696045 0.554579
vt 0.752821 0.559896
vt 0.751736 0.625000
vt 0.692491 0.625000
vt 0.812853 0.562174
vt 0.812717 0.625000
vt 0.752821 0.690104
vt 0.696045 0.695421
vt 0.812853 0.687826
vt 0.666667 0.458333
vt 0.705078 0.482422
vt 0.637912 0.550456
vt 0.755208 0.494792
vt 0.813151 0.499349
vt 0.875000 0.500000
vt 0.875000 0.562500
vt 0.875000 0.625000
vt 0.875000 0.687500
vt 0.875000 0.750000
vt 0.813151 0.750651
vt 0.755208 0.755208
vt 0.705078 0.767578
vt 0.637912 0.699544
vt 0.666667 0.791667
vt 0.631945 0.625000
vt 0.642578 0.830078
vt 0.630208 0.880208
vt 0.625651 0.938151
vt 0.625000 1.000000
vt 0.625000 0.000000
vt 0.625000 0.062500
vt 0.625000 0.125000
vt 0.625000 0.187500
vt 0.625000 0.250000
vt 0.625651 0.311849
vt 0.630208 0.369792
vt 0.642578 0.419922
vn 0.0703 -0.9129 0.4021
vn 0.0336 0.9797 0.1975
vn -0.0703 -0.9129 0.4021
vn -0.0336 0.9797 0.1975
vn 0.0762 -0.9896 0.1223
vn 0.2180 -0.9111 0.3498
vn 0.1228 0.9722 0.1995
vn -0.1618 0.3577 0.9197
vn 0.1618 0.3577 -0.9197
vn 0.7882 0.3687 0.4927
vn -0.7882 0.3687 0.4927
vn -0.1228 0.9722 0.1995
vn -0.2180 -0.9111 0.3498
vn -0.0762 -0.9896 0.1223
vn -0.0246 -0.9922 0.1226
vn 0.0246 -0.9922 0.1226
vn -0.4021 -0.9129 0.0703
vn -0.1975 0.9797 0.0336
vn -0.4021 -0.9129 -0.0703
vn -0.1975 0.9797 -0.0336
vn -0.1223 -0.9896 0.0762
vn -0.3498 -0.9111 0.2180
vn -0.1995 0.9722 0.1228
vn 0.9197 0.3577 0.1618
vn 0.4927 0.3687 0.7882
vn -0.4927 0.3687 -0.7882
vn -0.9197 0.3577 0.1618
vn -0.1995 0.9722 -0.1228
vn -0.3498 -0.9111 -0.2180
vn -0.1223 -0.9896 -0.0762
vn -0.1226 -0.9922 -0.0246
vn -0.1226 -0.9922 0.0246
vn -0.0135 -0.9998 -0.0135
vn 0.0135 -0.9998 -0.0135
vn -0.0135 -0.9998 0.0135
vn 0.0135 -0.9998 0.0135
vn -0.0478 -0.9977 -0.0478
vn -0.0154 -0.9987 -0.0479
vn 0.0154 -0.9987 -0.0479
vn 0.0478 -0.9977 -0.0478
vn 0.0479 -0.9987 -0.0154
vn 0.0479 -0.9987 0.0154
vn 0.0478 -0.9977 0.0478
vn 0.0154 -0.9987 0.0479
vn -0.0154 -0.9987 0.0479
vn -0.0478 -0.9977 0.0478
vn -0.0479 -0.9987 0.0154
vn -0.0479 -0.9987 -0.0154
vn 0.4021 -0.9129 -0.0703
vn 0.1975 0.9797 -0.0336
vn 0.4021 -0.9129 0.0703
vn 0.1975 0.9797 0.0336
vn 0.1223 -0.9896 -0.0762
vn 0.3498 -0.9111 -0.2180
vn 0.1995 0.9722 -0.1228
vn -0.7882 0.3687 -0.4927
vn 0.7882 0.3687 -0.4927
vn 0.1618 0.3577 0.9197
vn -0.1618 0.3577 -0.9197
vn 0.1995 0.9722 0.1228
vn 0.3498 -0.9111 0.2180
vn 0.1223 -0.9896 0.0762
vn 0.1226 -0.9922 0.0246
vn 0.1226 -0.9922 -0.0246
vn -0.0703 -0.9129 -0.4021
vn -0.0336 0.9797 -0.1975
vn 0.0703 -0.9129 -0.4021
vn 0.0336 0.9797 -0.1975
vn -0.0762 -0.9896 -0.1223
vn -0.2180 -0.9111 -0.3498
vn -0.1228 0.9722 -0.1995
vn -0.9197 0.3577 -0.1618
vn -0.4927 0.3687 0.7882
vn 0.4927 0.3687 -0.7882
vn 0.9197 0.3577 -0.1618
vn 0.1228 0.9722 -0.1995
vn 0.2180 -0.9111 -0.3498
vn 0.0762 -0.9896 -0.1223
vn 0.0246 -0.9922 -0.1226
vn -0.0246 -0.9922 -0.1226
vn 0.0000 1.0000 -0.0000
usemtl Material
s off
f 29/1/1 30/2/1 33/3/1 32/4/1
f 30/2/2 31/5/2 34/6/2 33/3/2
f 32/4/3 33/3/3 36/7/3 35/8/3
f 33/3/4 34/6/4 37/9/4 36/7/4
f 2/10/5 19/11/5 29/1/5 25/12/5
f 19/11/6 18/13/6 30/2/6 29/1/6
f 18/13/7 17/14/7 31/5/7 30/2/7
f 37/9/8 34/6/8 104/15/8 105/16/8
f 73/17/9 70/18/9 113/19/9 114/20/9
f 17/14/10 64/21/10 111/22/10 79/23/10
f 40/24/11 16/25/11 76/26/11 106/27/11
f 36/7/12 37/9/12 16/28/12 15/29/12
f 35/8/13 36/7/13 15/29/13 14/30/13
f 23/31/14 35/8/14 14/30/14 4/32/14
f 24/33/15 32/4/15 35/8/15 23/31/15
f 25/12/16 29/1/16 32/4/16 24/33/16
f 38/34/17 39/35/17 42/36/17 41/37/17
f 39/35/18 40/24/18 43/38/18 42/36/18
f 41/37/19 42/36/19 45/39/19 44/40/19
f 42/36/20 43/38/20 46/41/20 45/39/20
f 4/42/21 14/43/21 38/34/21 7/44/21
f 14/43/22 15/45/22 39/35/22 38/34/22
f 15/45/23 16/25/23 40/24/23 39/35/23
f 64/21/24 61/46/24 110/47/24 111/22/24
f 31/5/25 17/14/25 79/23/25 103/48/25
f 67/49/26 20/50/26 81/51/26 112/52/26
f 43/38/27 40/24/27 106/27/27 107/53/27
f 45/39/28 46/41/28 20/50/28 21/54/28
f 44/40/29 45/39/29 21/54/29 22/55/29
f 5/56/30 44/40/30 22/55/30 3/57/30
f 6/58/31 41/37/31 44/40/31 5/56/31
f 7/44/32 38/34/32 41/37/32 6/58/32
f 47/59/33 48/60/33 51/61/33 50/62/33
f 48/60/34 49/63/34 52/64/34 51/61/34
f 50/62/35 51/61/35 54/65/35 53/66/35
f 51/61/36 52/64/36 55/67/36 54/65/36
f 3/68/37 10/69/37 47/59/37 5/70/37
f 10/69/38 9/71/38 48/60/38 47/59/38
f 9/71/39 8/72/39 49/63/39 48/60/39
f 8/72/40 1/73/40 28/74/40 49/63/40
f 49/63/41 28/74/41 27/75/41 52/64/41
f 52/64/42 27/75/42 26/76/42 55/67/42
f 55/67/43 26/76/43 2/10/43 25/77/43
f 54/65/44 55/67/44 25/77/44 24/78/44
f 53/66/45 54/65/45 24/78/45 23/79/45
f 7/80/46 53/66/46 23/79/46 4/81/46
f 6/82/47 50/62/47 53/66/47 7/80/47
f 5/70/48 47/59/48 50/62/48 6/82/48
f 56/83/49 57/84/49 60/85/49 59/86/49
f 57/84/50 58/87/50 61/46/50 60/85/50
f 59/86/51 60/85/51 63/88/51 62/89/51
f 60/85/52 61/46/52 64/21/52 63/88/52
f 1/73/53 13/90/53 56/83/53 28/74/53
f 13/90/54 12/91/54 57/84/54 56/83/54
f 12/91/55 11/92/55 58/87/55 57/84/55
f 20/50/56 46/41/56 108/93/56 81/51/56
f 58/87/57 11/92/57 75/94/57 109/95/57
f 34/6/58 31/5/58 103/48/58 104/15/58
f 70/18/59 67/49/59 112/52/59 113/19/59
f 63/88/60 64/21/60 17/14/60 18/13/60
f 62/89/61 63/88/61 18/13/61 19/11/61
f 26/76/62 62/89/62 19/11/62 2/10/62
f 27/75/63 59/86/63 62/89/63 26/76/63
f 28/74/64 56/83/64 59/86/64 27/75/64
f 65/96/65 66/97/65 69/98/65 68/99/65
f 66/97/66 67/49/66 70/18/66 69/98/66
f 68/99/67 69/98/67 72/100/67 71/101/67
f 69/98/68 70/18/68 73/17/68 72/100/68
f 3/57/69 22/55/69 65/96/69 10/102/69
f 22/55/70 21/54/70 66/97/70 65/96/70
f 21/54/71 20/50/71 67/49/71 66/97/71
f 46/41/72 43/38/72 107/53/72 108/93/72
f 16/28/73 37/9/73 105/16/73 76/103/73
f 11/92/74 73/17/74 114/20/74 75/94/74
f 61/46/75 58/87/75 109/95/75 110/47/75
f 72/100/76 73/17/76 11/92/76 12/91/76
f 71/101/77 72/100/77 12/91/77 13/90/77
f 8/104/78 71/101/78 13/90/78 1/73/78
f 9/105/79 68/99/79 71/101/79 8/104/79
f 10/102/80 65/96/80 68/99/80 9/105/80
f 94/106/81 95/107/81 98/108/81 97/109/81
f 95/107/81 96/110/81 99/111/81 98/108/81
f 97/109/81 98/108/81 101/112/81 100/113/81
f 98/108/81 99/111/81 102/114/81 101/112/81
f 74/115/81 93/116/81 94/106/81 85/117/81
f 93/116/81 92/118/81 95/107/81 94/106/81
f 92/118/81 91/119/81 96/110/81 95/107/81
f 91/119/81 80/120/81 90/121/81 96/110/81
f 96/110/81 90/121/81 89/122/81 99/111/81
f 99/111/81 89/122/81 88/123/81 102/114/81
f 102/114/81 88/123/81 77/124/81 84/125/81
f 101/112/81 102/114/81 84/125/81 83/126/81
f 100/113/81 101/112/81 83/126/81 82/127/81
f 87/128/81 100/113/81 82/127/81 78/129/81
f 86/130/81 97/109/81 100/113/81 87/128/81
f 85/117/81 94/106/81 97/109/81 86/130/81
f 79/23/81 78/129/81 82/131/81 103/48/81
f 103/48/81 82/131/81 83/132/81 104/15/81
f 104/15/81 83/132/81 84/133/81 105/16/81
f 105/16/81 84/133/81 77/134/81 76/103/81
f 76/26/81 77/135/81 88/136/81 106/27/81
f 106/27/81 88/136/81 89/137/81 107/53/81
f 107/53/81 89/137/81 90/138/81 108/93/81
f 108/93/81 90/138/81 80/139/81 81/51/81
f 75/94/81 74/115/81 85/117/81 109/95/81
f 109/95/81 85/117/81 86/130/81 110/47/81
f 110/47/81 86/130/81 87/128/81 111/22/81
f 111/22/81 87/128/81 78/129/81 79/23/81
f 81/51/81 80/139/81 91/140/81 112/52/81
f 112/52/81 91/140/81 92/141/81 113/19/81
f 113/19/81 92/141/81 93/142/81 114/20/81
f 114/20/81 93/142/81 74/115/81 75/94/81
