<?xml version="1.0" encoding="UTF-8" standalone="no" ?>
<!DOCTYPE svg PUBLIC "-//W3C//DTD SVG 1.1//EN" "http://www.w3.org/Graphics/SVG/1.1/DTD/svg11.dtd">
<svg xmlns="http://www.w3.org/2000/svg" xmlns:xlink="http://www.w3.org/1999/xlink" version="1.1" width="500" height="500" viewBox="0 0 500 500" xml:space="preserve">
<desc>Created with Fabric.js 4.6.0</desc>
<defs>
</defs>
<g transform="matrix(3.7 0 0 0.07 272.93 226.31)" id="hPJnL6NZZT70mMYa5GWxH"  >
<path style="stroke: rgb(72,255,98); stroke-width: 0; stroke-dasharray: none; stroke-linecap: butt; stroke-dashoffset: 0; stroke-linejoin: miter; stroke-miterlimit: 4; fill: rgb(147,155,255); fill-rule: nonzero; opacity: 1;" vector-effect="non-scaling-stroke"  transform=" translate(0, 0)" d="M -27.41228 -27.41228 L 27.41228 -27.41228 L 27.41228 27.41228 L -27.41228 27.41228 z" stroke-linecap="round" />
</g>
<g transform="matrix(1 0 0 1 272.93 219.05)" id="DRMqpdRtyUior6xruy9sb"  >
<path style="stroke: rgb(220,200,135); stroke-width: 0; stroke-dasharray: none; stroke-linecap: butt; stroke-dashoffset: 0; stroke-linejoin: miter; stroke-miterlimit: 4; fill: rgb(187,147,255); fill-rule: nonzero; opacity: 1;" vector-effect="non-scaling-stroke"  transform=" translate(-101.54, -47.72)" d="M 0 0 L 203.07529 0 L 203.07529 95.44539 L 203.07529 95.44539 L 203.07529 53.28524 L 0 53.28524 z" stroke-linecap="round" />
</g>
<g transform="matrix(1 0 0 1 272.93 275.89)" id="9C-hipSntGfZzOqpBKCC_"  >
<path style="stroke: rgb(220,200,135); stroke-width: 0; stroke-dasharray: none; stroke-linecap: butt; stroke-dashoffset: 0; stroke-linejoin: miter; stroke-miterlimit: 4; fill: rgb(0,0,0); fill-rule: nonzero; opacity: 1;" vector-effect="non-scaling-stroke"  transform=" translate(-101.54, -47.72)" d="M 0 0 L 203.07529 0 L 203.07529 95.44539 L 203.07529 95.44539 L 203.07529 53.28524 L 0 53.28524 z" stroke-linecap="round" />
</g>
<g transform="matrix(1 0 0 1 272.93 211.84)" id="dRGNx6OemlDRtmi1BstTi"  >
<path style="stroke: rgb(72,255,98); stroke-width: 0; stroke-dasharray: none; stroke-linecap: butt; stroke-dashoffset: 0; stroke-linejoin: miter; stroke-miterlimit: 4; fill: rgb(255,255,255); fill-rule: nonzero; opacity: 1;" vector-effect="non-scaling-stroke"  transform=" translate(-27.33, -12.61)" d="M 27.3257 0 C 41.71914 0 53.53305 11.11178 54.6514 25.2193 L -0.000009999999996068709 25.2193 C 1.1183400000000039 11.111780000000001 12.932260000000005 0 27.325690000000005 0 z" stroke-linecap="round" />
</g>
<g transform="matrix(1 0 0 -1 272.93 240.78)" id="F06cxQJP_ia9ONRMqP4_Q"  >
<path style="stroke: rgb(72,255,98); stroke-width: 0; stroke-dasharray: none; stroke-linecap: butt; stroke-dashoffset: 0; stroke-linejoin: miter; stroke-miterlimit: 4; fill: rgb(255,245,202); fill-rule: nonzero; opacity: 1;" vector-effect="non-scaling-stroke"  transform=" translate(-27.33, -12.61)" d="M 27.3257 0 C 41.71914 0 53.53305 11.11178 54.6514 25.2193 L -0.000009999999996068709 25.2193 C 1.1183400000000039 11.111780000000001 12.932260000000005 0 27.325690000000005 0 z" stroke-linecap="round" />
</g>
</svg>