# Blender v2.82 (sub 7) OBJ File: ''
# www.blender.org
mtllib StonePillars.mtl
o Cube
v 0.789689 105.390778 9.315041
v 1.164943 3.309429 -6.339864
v -0.286976 49.446941 10.373658
v -0.286976 49.446945 -10.373658
v 20.460339 49.446941 10.373658
v -0.447293 122.581070 -0.095958
v 4.862705 14.880886 -11.179304
v 20.379824 117.700119 2.390521
v 7.451694 122.772675 9.290783
v -174.423111 4.248753 -5.473077
v -164.788208 4.172050 -6.508577
v -161.030807 13.853905 -1.032270
v -169.982300 13.853905 7.919231
v -174.544830 54.090378 7.297089
v -175.988541 56.617661 -6.561142
v -170.863754 4.400036 -7.123774
v -161.026825 111.582504 1.048656
v -167.901352 111.582504 7.923176
v -159.350296 62.794441 0.000000
v -168.950027 62.794441 9.599732
v -6.582727 118.140213 -9.087678
v 22.730265 21.905712 2.977309
v 18.189957 5.877907 -7.707335
v 17.609653 7.874203 8.529145
v 21.678993 37.726704 -8.827653
v 18.708326 119.855331 -8.092858
v 2.869076 112.261826 -10.562432
v 18.675842 110.285927 9.906624
v -0.321326 16.013763 7.224448
v 6.856442 62.489815 -14.057651
v 14.093616 84.633591 -13.684676
v 13.435357 33.516701 -13.338576
v 24.212101 80.870911 -2.882622
v 23.455742 81.998795 5.191215
v 6.314379 4.992046 9.553970
v -4.095620 75.943871 3.171898
v -3.282376 81.998795 -5.191217
v -3.251894 33.516701 -3.348678
v 14.078192 45.937229 13.876275
v 6.079749 84.633598 13.684676
v 6.738004 33.516701 13.338576
v -162.039505 5.468452 -3.174692
v -172.124725 5.468452 6.910528
v -161.652939 54.089916 -5.594809
v -163.529480 106.507828 -5.943009
v -174.324112 114.558823 -5.230848
v -174.874237 111.212219 4.827039
v -176.073807 4.400043 -1.913736
v -175.458618 4.172043 4.161819
v -163.560852 121.050308 5.633739
v -168.478241 76.257019 -9.203815
v -159.921539 90.847580 0.131082
v -159.921555 34.741299 -0.131082
v -177.893814 74.184875 1.825885
v -168.818939 90.847580 9.028473
v -169.081116 34.741299 9.028473
v -190.369827 114.865677 5.035787
v -176.315125 124.007416 -6.234035
v -154.227631 107.451241 -5.557288
v 25.025284 124.499496 0.929178
v 3.941942 102.996521 3.455233
v -0.651464 119.569992 7.576662
v -178.583191 104.624268 -5.328157
v -178.106979 2.274689 -2.331263
v -159.242889 109.590073 12.402816
v -160.068756 4.986012 -2.619794
v -179.659851 48.680447 14.360538
v -179.659851 48.680473 -6.386776
v -156.762405 45.253059 12.338437
v -179.635757 116.157440 3.986881
v -172.597595 8.613354 -6.431329
v -158.936600 116.157440 3.986881
v -176.987793 110.379341 14.471515
v -161.182907 5.111404 11.694217
v -160.604874 44.370407 -8.412550
v -161.212189 107.440163 -6.279603
v -172.871063 106.589294 -8.397152
v -179.187820 115.895737 9.141358
v -179.187820 115.895752 -1.167595
v -159.378510 115.944855 -1.167161
v -159.378510 115.944855 9.140924
v -179.694183 15.247231 11.211342
v -169.286179 125.596428 9.648517
v -169.286179 125.596436 -1.674756
v -172.451660 42.287086 -10.006134
v -155.948227 91.223045 0.647902
v -155.269348 42.906265 0.932180
v -173.058487 4.225552 13.540853
v -183.329605 74.592896 7.739609
v -182.970856 83.867134 -0.020071
v -182.624756 32.750198 0.638222
v -165.279251 83.867073 17.671556
v -173.753571 45.817982 17.765280
v -165.937500 32.750214 17.325457
vt 0.728477 0.496437
vt 0.860102 0.608673
vt 0.670986 0.630825
vt 0.851664 0.729251
vt 0.648233 0.790788
vt 0.500000 0.848001
vt 0.434432 0.916371
vt 0.387196 0.842517
vt 0.466164 0.765668
vt 0.374037 0.982463
vt 0.537129 0.088680
vt 0.414586 0.163118
vt 0.458867 0.025110
vt 0.531580 0.583289
vt 0.426986 0.669439
vt 0.361724 0.500218
vt 0.473030 0.249466
vt 0.598512 0.260089
vt 0.471271 0.324935
vt 0.345197 0.778646
vt 0.483019 0.756493
vt 0.356999 0.854021
vt 0.528576 0.881883
vt 0.598148 0.983132
vt 0.481036 1.000000
vt 0.373068 0.964840
vt 0.481987 0.018087
vt 0.375000 0.062500
vt 0.375000 0.000000
vt 0.348481 0.514049
vt 0.531862 0.584046
vt 0.352903 0.675841
vt 0.674191 0.494882
vt 0.634336 0.784968
vt 0.353045 0.415690
vt 0.477977 0.468571
vt 0.491476 0.109644
vt 0.514872 0.246702
vt 0.374655 0.257947
vt 0.534958 0.474877
vt 0.536087 0.625000
vt 0.352656 0.700399
vt 0.625000 0.125000
vt 0.536735 0.187431
vt 0.132947 0.499655
vt 0.873886 0.528792
vt 0.869007 0.750261
vt 0.638013 0.456575
vt 0.756703 0.557292
vt 0.643715 0.545982
vt 0.756703 0.692708
vt 0.732675 0.768992
vt 0.643715 0.704018
vt 0.326978 0.726403
vt 0.138911 0.709439
vt 0.146677 0.523167
vt 0.524277 0.573970
vt 0.426986 0.669438
vt 0.361724 0.500218
vt 0.434400 0.333584
vt 0.355285 0.394667
vt 0.373723 0.249422
vt 0.466164 0.484332
vt 0.463753 0.412242
vt 0.861787 0.512535
vt 0.327926 0.727448
vt 0.548411 0.922278
vt 0.625303 0.813718
vt 0.611923 0.989671
vt 0.473216 1.000000
vt 0.611356 0.013342
vt 0.373393 0.266894
vt 0.125000 0.585428
vt 0.148923 0.508270
vt 0.146677 0.726833
vt 0.466164 0.484332
vt 0.635571 0.462400
vt 0.269667 0.769715
vt 0.543654 0.697979
vt 0.552857 0.407789
vt 0.643992 0.392325
vt 0.428393 0.400984
vt 0.760417 0.489583
vt 0.869692 0.500261
vt 0.656840 0.754047
vt 0.858239 0.736645
vt 0.875000 0.625000
vt 0.500000 0.125000
vt 0.437500 0.125000
vt 0.562500 0.125000
vt 0.597432 0.011856
vt 0.625000 0.125000
vt 0.565104 0.371383
vt 0.630208 0.369792
vt 0.645724 0.492447
vt 0.434896 0.371383
vt 0.500000 0.372107
vt 0.446427 0.748578
vt 0.335149 0.796077
vt 0.496288 1.000830
vt 0.125000 0.640356
vt 0.635571 0.787600
vt 0.375000 0.035752
vt 0.473216 0.000000
vt 0.460925 0.088543
vt 0.593479 0.000000
vt 0.625000 0.062500
vt 0.562500 0.087742
vt 0.625000 0.125000
vt 0.273546 0.495776
vt 0.269667 0.769715
vt 0.637828 0.625000
vt 0.553899 0.676312
vt 0.466164 0.765668
vt 0.468447 0.220109
vt 0.548434 0.327674
vt 0.588680 0.242210
vt 0.623041 0.441602
vt 0.375000 0.013735
vt 0.273546 0.495776
vt 0.355285 0.394667
vt 0.375000 0.125000
vt 0.369792 0.369792
vt 0.856577 0.498988
vt 0.875834 0.562523
vt 0.875834 0.687478
vt 0.856577 0.751013
vt 0.453602 0.848659
vt 0.355285 0.855333
vt 0.605849 0.853161
vt 0.594307 0.978777
vt 0.468704 0.974706
vt 0.374037 0.982463
vt 0.625109 0.187392
vn 0.2479 0.9416 -0.2278
vn 0.2063 0.9644 0.1654
vn -0.2059 0.6634 -0.7193
vn -0.1312 -0.0544 -0.9899
vn -0.4897 0.0220 -0.8716
vn 0.1356 -0.1754 -0.9751
vn 0.9894 -0.0388 -0.1401
vn -0.9804 -0.0488 0.1909
vn 0.4723 0.0206 0.8812
vn -0.4194 -0.0314 -0.9073
vn 0.4977 0.0121 -0.8672
vn 0.0995 -0.0321 -0.9945
vn 0.7781 -0.0374 -0.6270
vn -0.9945 -0.0313 0.0995
vn -0.9962 0.0834 -0.0267
vn -0.6270 -0.0374 0.7781
vn -0.3360 -0.4814 -0.8095
vn 0.3506 -0.4408 -0.8263
vn 0.9759 0.0993 0.1941
vn 0.0267 -0.6266 -0.7789
vn -0.0237 0.7907 0.6118
vn -0.5103 0.4836 0.7111
vn -0.4070 0.3718 -0.8343
vn 0.1489 -0.9886 0.0203
vn -0.9804 -0.0489 0.1908
vn 0.1638 -0.1698 0.9718
vn -0.4921 0.0197 0.8703
vn 0.5518 0.5278 0.6457
vn -0.6833 -0.0849 -0.7251
vn -0.4016 -0.0385 -0.9150
vn -0.1298 0.0591 -0.9898
vn 0.0839 0.1455 -0.9858
vn 0.6670 0.0308 -0.7444
vn 0.0750 -0.0077 -0.9972
vn 0.4848 -0.0122 -0.8746
vn 0.5117 -0.0861 -0.8548
vn 0.8047 0.0344 -0.5926
vn 0.9838 0.1213 -0.1319
vn 0.8267 -0.0814 0.5568
vn 0.7802 0.0277 0.6249
vn 0.9953 -0.0155 0.0954
vn 0.9257 -0.0251 0.3775
vn 0.9458 -0.3164 0.0727
vn -0.8402 0.0264 0.5416
vn -0.0167 -0.3812 -0.9243
vn -0.9294 -0.0337 0.3676
vn -0.9886 -0.1475 0.0298
vn -0.9496 0.0952 0.2987
vn -0.9093 0.1138 -0.4003
vn -0.7513 0.0358 -0.6589
vn -0.9950 -0.0044 -0.1000
vn -0.9072 -0.0165 -0.4204
vn -0.8494 -0.0724 -0.5227
vn 0.5104 -0.0730 0.8568
vn 0.1997 0.0461 0.9788
vn -0.3092 0.1198 0.9434
vn -0.5727 0.0265 0.8193
vn -0.0604 -0.0075 0.9981
vn -0.4108 -0.0115 0.9117
vn -0.3919 0.3820 0.8369
vn -0.6503 0.7308 0.2076
vn 0.3820 0.5761 -0.7226
vn 0.6761 0.4598 -0.5757
vn -0.2894 -0.0181 -0.9570
vn -0.4066 0.0326 -0.9130
vn 0.4389 -0.0111 -0.8984
vn 0.9338 -0.0173 -0.3573
vn 0.9233 0.0660 -0.3784
vn -0.8754 -0.0143 0.4832
vn -0.9568 0.0341 -0.2888
vn -0.9815 -0.0154 -0.1908
vn -0.4079 0.0666 0.9106
vn -0.3573 -0.0173 0.9338
vn -0.0191 -0.0662 -0.9976
vn 0.2760 -0.1592 0.9479
vn -0.0070 -0.2431 0.9700
vn -0.0508 -0.8913 0.4506
vn 0.0185 0.8166 -0.5769
vn -0.0281 0.8518 0.5230
vn -0.5261 0.2695 -0.8066
vn 0.8625 -0.0621 -0.5022
vn 0.8818 0.0883 -0.4632
vn 0.9874 0.1304 -0.0900
vn 0.0885 -0.9917 0.0937
vn -0.8116 0.0341 0.5833
vn 0.0753 -0.5869 -0.8061
vn -0.9254 -0.0346 0.3775
vn -0.9884 -0.1492 0.0270
vn -0.8923 0.0744 0.4453
vn -0.9893 0.1136 -0.0917
vn -0.9165 0.0943 -0.3887
vn -0.8191 0.0266 -0.5730
vn -0.9985 -0.0075 -0.0551
vn -0.9117 -0.0115 -0.4108
vn -0.8472 -0.0743 -0.5261
vn 0.5524 -0.0742 0.8303
vn 0.4903 -0.0122 0.8715
vn 0.0440 -0.0073 0.9990
vn 0.6016 0.0224 0.7985
vn 0.1216 0.1717 0.9776
vn -0.1751 0.0414 0.9837
vn -0.1154 -0.1023 0.9880
vn 0.9644 -0.1140 -0.2387
vn 0.1952 -0.9772 0.0841
vn 0.1314 -0.1287 0.9829
vn -0.8403 -0.4386 0.3187
vn -0.9963 0.0750 -0.0426
vn -0.5121 -0.0918 0.8540
vn 0.0699 0.1117 0.9913
vn 0.9268 -0.0281 -0.3744
vn 0.0128 0.1051 -0.9944
vn 0.8980 0.0261 -0.4393
vn -0.4638 0.0305 0.8854
vn -0.8181 0.0201 0.5747
vn -0.9072 -0.0358 -0.4192
vn -0.3744 -0.0281 0.9268
vn 0.1946 0.2837 0.9390
vn 0.2494 0.3408 -0.9064
vn -0.7367 0.2832 0.6141
vn -0.5171 -0.0902 -0.8512
vn -0.4536 0.0222 -0.8909
vn 0.1522 0.0302 -0.9879
vn 0.2074 -0.1233 -0.9705
vn 0.8469 0.0186 -0.5314
vn 0.9836 0.0279 0.1783
vn 0.9887 0.0984 0.1128
vn 0.9862 -0.1225 0.1117
vn -0.9925 0.0952 0.0771
vn -0.8398 -0.4378 0.3209
vn -0.4943 -0.0893 0.8647
usemtl Material
s off
f 9/1/1 8/2/1 6/3/1
f 8/2/2 26/4/2 6/3/2
f 26/4/3 27/5/3 6/3/3
f 30/6/4 32/7/4 7/8/4
f 4/9/5 27/5/5 30/6/5
f 7/8/6 32/7/6 23/10/6
f 33/11/7 22/12/7 25/13/7
f 36/14/8 38/15/8 29/16/8
f 5/17/9 28/18/9 39/19/9
f 10/20/10 15/21/10 16/22/10
f 51/23/11 45/24/11 44/25/11
f 51/23/12 11/26/12 16/22/12
f 44/27/13 42/28/13 11/29/13
f 49/30/14 54/31/14 48/32/14
f 47/33/15 46/34/15 54/31/15
f 43/35/16 14/36/16 49/30/16
f 57/37/17 58/38/17 59/39/17
f 21/40/18 60/41/18 61/42/18
f 8/43/19 28/18/19 34/44/19 33/11/19
f 21/40/20 61/42/20 59/45/20
f 58/46/21 57/47/21 60/41/21
f 73/48/22 83/49/22 78/50/22
f 84/51/23 77/52/23 79/53/23
f 64/54/24 66/55/24 74/56/24
f 89/57/25 91/58/25 82/59/25
f 94/60/26 88/61/26 74/62/26
f 73/48/27 67/63/27 93/64/27
f 9/1/28 28/65/28 8/2/28
f 2/66/29 4/9/29 7/8/29
f 4/9/30 30/6/30 7/8/30
f 30/6/31 27/5/31 31/67/31
f 27/68/32 26/69/32 31/67/32
f 31/67/33 26/69/33 25/70/33
f 32/7/34 30/6/34 31/67/34
f 32/7/35 31/67/35 25/70/35
f 32/7/36 25/70/36 23/10/36
f 33/11/37 25/13/37 26/71/37
f 33/11/38 26/71/38 8/43/38
f 22/12/39 5/17/39 24/72/39
f 34/44/40 28/18/40 5/17/40
f 22/12/41 33/11/41 34/44/41
f 22/12/42 34/44/42 5/17/42
f 22/73/43 24/74/43 23/75/43
f 36/14/44 3/76/44 1/77/44
f 2/66/45 7/78/45 23/75/45
f 3/76/46 36/14/46 29/16/46
f 29/16/47 38/15/47 2/66/47
f 1/77/48 6/3/48 36/14/48
f 37/79/49 6/3/49 27/5/49
f 37/79/50 27/5/50 4/9/50
f 38/15/51 36/14/51 37/79/51
f 38/15/52 37/79/52 4/9/52
f 38/15/53 4/9/53 2/66/53
f 24/72/54 5/17/54 39/19/54
f 39/19/55 28/18/55 40/80/55
f 40/80/56 9/81/56 1/77/56
f 40/80/57 1/77/57 3/76/57
f 41/82/58 39/19/58 40/80/58
f 41/82/59 40/80/59 3/76/59
f 47/33/60 18/83/60 50/84/60
f 47/33/61 50/84/61 46/85/61
f 46/85/62 50/84/62 45/86/62
f 50/84/63 17/87/63 45/86/63
f 16/22/64 15/21/64 51/23/64
f 46/34/65 51/23/65 15/21/65
f 51/23/66 44/25/66 11/26/66
f 44/27/67 19/88/67 53/89/67
f 52/90/68 45/91/68 17/92/68
f 49/30/69 14/36/69 54/31/69
f 15/21/70 54/31/70 46/34/70
f 54/31/71 15/21/71 48/32/71
f 55/93/72 18/94/72 47/95/72
f 56/96/73 20/97/73 14/36/73
f 59/39/74 58/38/74 21/40/74
f 60/41/75 62/98/75 61/42/75
f 61/99/76 62/98/76 57/100/76
f 59/45/77 61/42/77 57/101/77
f 21/40/78 58/46/78 60/41/78
f 60/41/79 57/47/79 62/98/79
f 79/53/80 77/52/80 63/102/80
f 66/103/81 75/104/81 87/105/81
f 76/106/82 80/107/82 86/108/82
f 86/108/83 80/107/83 72/109/83
f 74/56/84 88/110/84 64/54/84
f 89/57/85 67/63/85 73/48/85
f 64/54/86 71/111/86 66/55/86
f 67/63/87 89/57/87 82/59/87
f 82/59/88 91/58/88 64/54/88
f 73/48/89 78/50/89 89/57/89
f 70/112/90 79/53/90 90/113/90
f 90/113/91 79/53/91 63/102/91
f 90/113/92 63/102/92 68/114/92
f 91/58/93 89/57/93 90/113/93
f 91/58/94 90/113/94 68/114/94
f 91/58/95 68/114/95 64/54/95
f 74/62/96 69/115/96 94/60/96
f 69/115/97 92/116/97 94/60/97
f 92/116/98 93/64/98 94/60/98
f 69/115/99 65/117/99 92/116/99
f 92/116/100 65/117/100 73/118/100
f 92/116/101 73/48/101 93/64/101
f 88/61/102 94/60/102 93/64/102
f 22/12/103 23/119/103 25/13/103
f 24/74/104 35/120/104 2/66/104 23/75/104
f 39/19/105 41/82/105 35/121/105 24/72/105
f 2/66/106 35/120/106 29/16/106
f 37/79/107 36/14/107 6/3/107
f 3/76/108 29/16/108 35/121/108 41/82/108
f 9/81/109 40/80/109 28/18/109
f 44/27/110 53/89/110 12/122/110 42/28/110
f 51/23/111 46/34/111 45/24/111
f 44/27/112 45/91/112 52/90/112 19/88/112
f 55/93/113 47/95/113 14/36/113 20/97/113
f 14/36/114 47/95/114 54/31/114
f 10/20/115 48/32/115 15/21/115
f 13/123/116 56/96/116 14/36/116 43/35/116
f 65/124/117 81/125/117 83/49/117 73/48/117
f 84/51/118 80/126/118 76/127/118 77/52/118
f 9/1/119 6/3/119 1/77/119
f 68/114/120 85/128/120 71/129/120 64/54/120
f 68/114/121 63/102/121 77/130/121 85/128/121
f 77/130/122 76/131/122 75/132/122 85/128/122
f 71/129/123 85/128/123 75/132/123 66/133/123
f 75/104/124 76/106/124 86/108/124 87/105/124
f 86/108/125 65/117/125 69/115/125 87/105/125
f 72/109/126 81/134/126 65/117/126 86/108/126
f 66/103/127 87/105/127 69/115/127 74/62/127
f 89/57/128 78/50/128 70/112/128 90/113/128
f 64/54/129 88/110/129 82/59/129
f 93/64/130 67/63/130 82/59/130 88/61/130
