# Blender v2.82 (sub 7) OBJ File: ''
# www.blender.org
mtllib TreeStump.mtl
o Cube_Cube.001
v -0.547553 -0.297811 0.495142
v -0.547553 1.021594 0.495142
v -0.547553 -0.297811 -0.824263
v -0.547553 1.021594 -0.824263
v 0.771853 -0.297811 0.495142
v 0.771853 1.021594 0.495142
v 0.771853 -0.297811 -0.824263
v 0.771853 1.021594 -0.824263
v 0.145517 6.255259 0.459267
v 0.145517 6.255259 -0.860139
v 1.464923 6.255259 -0.860139
v 1.464923 6.255259 0.459267
v -1.158789 11.456825 0.497366
v -1.158789 11.456825 -0.822039
v 0.160616 11.456825 -0.822039
v 0.160616 11.456825 0.497366
v 0.644472 9.527212 0.483233
v -0.674934 9.527212 0.483233
v -0.674934 9.527212 -0.836173
v 0.644472 9.527212 -0.836173
v -0.475364 8.731332 0.477403
v 0.844041 8.731332 -0.842003
v 0.844041 8.731332 0.477403
v -0.475364 8.731332 -0.842003
v -2.888085 9.107389 -0.342623
v -3.087654 9.903270 -0.336793
v -3.087654 9.903270 0.982612
v -2.888085 9.107389 0.976783
v 0.740663 18.474606 0.745039
v 0.740663 18.474606 -0.574366
v 2.060069 18.474606 -0.574366
v 2.060069 18.474606 0.745039
vt 0.375000 0.000000
vt 0.625000 0.000000
vt 0.625000 0.250000
vt 0.375000 0.250000
vt 0.625000 0.500000
vt 0.375000 0.500000
vt 0.625000 0.750000
vt 0.375000 0.750000
vt 0.625000 1.000000
vt 0.375000 1.000000
vt 0.125000 0.500000
vt 0.125000 0.750000
vt 0.625000 0.000000
vt 0.625000 0.250000
vt 0.625000 1.000000
vt 0.625000 0.750000
vt 0.625000 0.750000
vt 0.625000 1.000000
vt 0.625000 0.750000
vt 0.625000 1.000000
vt 0.625000 0.500000
vt 0.625000 0.500000
vt 0.625000 0.500000
vt 0.625000 0.750000
vt 0.625000 0.500000
vt 0.625000 0.250000
vt 0.625000 0.250000
vt 0.625000 0.000000
vt 0.625000 0.000000
vt 0.625000 1.000000
vt 0.625000 1.000000
vt 0.625000 1.000000
vt 0.625000 0.750000
vt 0.625000 0.500000
vt 0.625000 0.250000
vt 0.625000 0.000000
vt 0.625000 0.250000
vt 0.625000 0.000000
vt 0.625000 0.000000
vt 0.625000 0.250000
vt 0.875000 0.500000
vt 0.875000 0.750000
vt 0.625000 0.000000
vt 0.625000 0.250000
vt 0.625000 1.000000
vn -1.0000 0.0000 0.0000
vn 0.0000 0.0000 -1.0000
vn 1.0000 0.0000 0.0000
vn 0.0000 0.0000 1.0000
vn 0.0000 -1.0000 0.0000
vn -0.9913 0.1313 0.0000
vn 0.0000 -0.0073 1.0000
vn 0.0000 0.0069 1.0000
vn 0.0000 -0.0069 -1.0000
vn 0.9913 -0.1313 0.0000
vn 0.9653 -0.2613 0.0000
vn 0.0000 0.0073 -1.0000
vn 0.9700 0.2432 0.0000
vn -0.9700 -0.2432 0.0000
vn 0.2092 0.0453 0.9768
vn 0.1540 0.9881 -0.0000
vn -0.1540 -0.9881 0.0000
vn -0.2092 -0.0453 -0.9768
vn 0.0000 1.0000 0.0000
vn -0.9653 0.2613 0.0000
vn 0.0000 -0.0353 0.9994
vn 0.0000 0.0353 -0.9994
usemtl None
s off
f 1/1/1 2/2/1 4/3/1 3/4/1
f 3/4/2 4/3/2 8/5/2 7/6/2
f 7/6/3 8/5/3 6/7/3 5/8/3
f 5/8/4 6/7/4 2/9/4 1/10/4
f 3/11/5 7/6/5 5/8/5 1/12/5
f 4/3/6 2/2/6 9/13/6 10/14/6
f 18/15/7 17/16/7 16/17/7 13/18/7
f 2/9/8 6/7/8 12/19/8 9/20/8
f 8/5/9 4/3/9 10/14/9 11/21/9
f 6/7/10 8/5/10 11/21/10 12/19/10
f 16/17/11 15/22/11 31/23/11 32/24/11
f 20/25/12 19/26/12 14/27/12 15/22/12
f 17/16/13 20/25/13 15/22/13 16/17/13
f 19/26/14 18/28/14 13/29/14 14/27/14
f 21/30/15 18/15/15 27/31/15 28/32/15
f 23/33/13 22/34/13 20/25/13 17/16/13
f 22/34/12 24/35/12 19/26/12 20/25/12
f 21/30/7 23/33/7 17/16/7 18/15/7
f 9/20/7 12/19/7 23/33/7 21/30/7
f 11/21/12 10/14/12 24/35/12 22/34/12
f 12/19/13 11/21/13 22/34/13 23/33/13
f 10/14/14 9/13/14 21/36/14 24/35/14
f 25/37/14 28/38/14 27/39/14 26/40/14
f 18/28/16 19/26/16 26/40/16 27/39/16
f 24/35/17 21/36/17 28/38/17 25/37/17
f 19/26/18 24/35/18 25/37/18 26/40/18
f 31/23/19 30/41/19 29/42/19 32/24/19
f 14/27/20 13/29/20 29/43/20 30/44/20
f 13/18/21 16/17/21 32/24/21 29/45/21
f 15/22/22 14/27/22 30/44/22 31/23/22
