# Blender v2.82 (sub 7) OBJ File: ''
# www.blender.org
mtllib Trees.mtl
o Cylinder
v 0.000000 -1.000000 -1.000000
v -0.000000 1.000000 -0.736328
v 0.866025 -1.000000 -0.500000
v 0.637679 1.000000 -0.368164
v 0.866025 -1.000000 0.500000
v 0.637679 1.000000 0.368164
v -0.000000 -1.000000 1.000000
v -0.000000 1.000000 0.736328
v -0.866025 -1.000000 0.500000
v -0.637679 1.000000 0.368164
v -0.866025 -1.000000 -0.500000
v -0.637679 1.000000 -0.368164
vt 1.000000 0.500000
vt 1.000000 1.000000
vt 0.833333 1.000000
vt 0.833333 0.500000
vt 0.666667 1.000000
vt 0.666667 0.500000
vt 0.500000 1.000000
vt 0.500000 0.500000
vt 0.333333 1.000000
vt 0.333333 0.500000
vt 0.457846 0.370000
vt 0.250000 0.490000
vt 0.042154 0.370000
vt 0.042154 0.130000
vt 0.250000 0.010000
vt 0.457846 0.130000
vt 0.166667 1.000000
vt 0.166667 0.500000
vt -0.000000 1.000000
vt -0.000000 0.500000
vt 0.750000 0.490000
vt 0.957846 0.370000
vt 0.957846 0.130000
vt 0.750000 0.010000
vt 0.542154 0.130000
vt 0.542154 0.370000
vn 0.4968 0.1134 -0.8604
vn 0.9935 0.1134 0.0000
vn 0.4968 0.1134 0.8604
vn -0.4968 0.1134 0.8604
vn 0.0000 1.0000 0.0000
vn -0.9935 0.1134 0.0000
vn -0.4968 0.1134 -0.8604
vn 0.0000 -1.0000 0.0000
usemtl None
s off
f 1/1/1 2/2/1 4/3/1 3/4/1
f 3/4/2 4/3/2 6/5/2 5/6/2
f 5/6/3 6/5/3 8/7/3 7/8/3
f 7/8/4 8/7/4 10/9/4 9/10/4
f 4/11/5 2/12/5 12/13/5 10/14/5 8/15/5 6/16/5
f 9/10/6 10/9/6 12/17/6 11/18/6
f 11/18/7 12/17/7 2/19/7 1/20/7
f 1/21/8 3/22/8 5/23/8 7/24/8 9/25/8 11/26/8
o Cylinder.001
v 0.000199 0.591809 -1.301534
v 0.000226 2.592037 -1.051313
v 0.790764 0.592371 -0.650171
v 0.637810 2.592490 -0.525994
v 0.790529 0.593551 0.652269
v 0.637620 2.593441 0.524412
v -0.000272 0.594169 1.303346
v -0.000154 2.593940 1.049500
v -0.790836 0.593608 0.651983
v -0.637738 2.593487 0.524182
v -0.790601 0.592428 -0.650456
v -0.637548 2.592535 -0.526225
v 0.287417 0.308264 -1.932646
v 1.155114 0.592086 -0.950145
v 1.154770 0.593810 0.952375
v -0.000380 0.594713 1.903426
v -1.176841 0.331262 1.229454
v -1.154842 0.592169 -0.950563
v 0.000227 1.367072 -1.302236
v 0.790792 1.367634 -0.650873
v 0.790557 1.368814 0.651566
v -0.000244 1.369433 1.302643
v -0.790808 1.368871 0.651280
v -0.790573 1.367691 -0.651159
vt 1.000000 0.500000
vt 1.000000 1.000000
vt 0.833333 1.000000
vt 0.833333 0.500000
vt 0.666667 1.000000
vt 0.666667 0.500000
vt 0.500000 1.000000
vt 0.500000 0.500000
vt 0.333333 1.000000
vt 0.333333 0.500000
vt 0.457846 0.370000
vt 0.250000 0.490000
vt 0.042154 0.370000
vt 0.042154 0.130000
vt 0.250000 0.010000
vt 0.457846 0.130000
vt 0.166667 1.000000
vt 0.166667 0.500000
vt -0.000000 1.000000
vt -0.000000 0.500000
vt 0.607711 0.332150
vt 0.750000 0.414301
vt 0.750000 0.414301
vt 0.607711 0.332150
vt 0.892289 0.332150
vt 0.750000 0.490000
vt 0.957846 0.370000
vt 0.892289 0.167850
vt 0.957846 0.130000
vt 0.750000 0.085699
vt 0.750000 0.010000
vt 0.607711 0.167850
vt 0.542154 0.130000
vt 0.542154 0.370000
vt 0.892289 0.332150
vt 0.892289 0.167850
vt 0.750000 0.085699
vt 0.607711 0.167850
vn 0.6356 0.3318 -0.6971
vn 0.9681 0.2504 -0.0001
vn 0.6038 0.3131 0.7331
vn -0.5518 0.3473 0.7582
vn 0.0000 1.0000 -0.0009
vn -0.9704 0.2413 0.0128
vn -0.5400 0.2718 -0.7966
vn 0.6356 0.0007 0.7720
vn -0.0738 -0.9672 0.2432
vn -0.0000 -1.0000 0.0009
vn 0.2243 -0.9643 -0.1408
vn 0.3068 -0.9493 -0.0688
vn 0.0860 -0.9550 0.2839
vn 0.6359 -0.0007 -0.7718
vn -1.0000 0.0000 -0.0002
vn 1.0000 -0.0000 0.0002
vn -0.6356 -0.0007 -0.7720
vn -0.6359 0.0007 0.7718
usemtl None
s off
f 25/27/9 14/28/9 16/29/9 26/30/9
f 26/30/10 16/29/10 18/31/10 27/32/10
f 27/32/11 18/31/11 20/33/11 28/34/11
f 28/34/12 20/33/12 22/35/12 29/36/12
f 16/37/13 14/38/13 24/39/13 22/40/13 20/41/13 18/42/13
f 29/36/14 22/35/14 24/43/14 30/44/14
f 30/44/15 24/43/15 14/45/15 25/46/15
f 23/47/16 13/48/16 31/49/16 36/50/16
f 15/51/17 13/48/17 25/52/17 26/53/17
f 17/54/18 15/51/18 26/53/18 27/55/18
f 19/56/18 17/54/18 27/55/18 28/57/18
f 21/58/19 19/56/19 28/57/19 29/59/19
f 23/47/20 21/58/20 29/59/20 30/60/20
f 13/48/21 23/47/21 30/60/21 25/52/21
f 31/49/18 32/61/18 33/62/18 34/63/18 35/64/18 36/50/18
f 19/56/22 21/58/22 35/64/22 34/63/22
f 15/51/23 17/54/23 33/62/23 32/61/23
f 21/58/24 23/47/24 36/50/24 35/64/24
f 17/54/25 19/56/25 34/63/25 33/62/25
f 13/48/26 15/51/26 32/61/26 31/49/26
o Cylinder.002
v -0.122613 1.637856 -1.167318
v -0.127012 3.456012 -1.028761
v 0.588822 1.668261 -0.574459
v 0.446754 3.480534 -0.550625
v 0.581278 1.726298 0.602225
v 0.440670 3.527340 0.398361
v -0.137700 1.753930 1.186051
v -0.139180 3.549625 0.869211
v -0.849135 1.723525 0.593192
v -0.712946 3.525104 0.391075
v -0.841591 1.665488 -0.583493
v -0.706862 3.478297 -0.557911
v -0.119137 1.611116 -1.709459
v 1.220920 1.407423 -0.810160
v 0.909061 1.740306 0.875376
v -0.141176 1.780670 1.728191
v -1.180393 1.736256 0.862181
v -1.169374 1.651479 -0.856644
v -0.123752 2.338278 -1.201872
v 0.587682 2.368683 -0.609013
v 0.580139 2.426720 0.567671
v -0.138840 2.454352 1.151497
v -0.850274 2.423947 0.558638
v -0.842731 2.365910 -0.618047
vt 1.000000 0.500000
vt 1.000000 1.000000
vt 0.833333 1.000000
vt 0.833333 0.500000
vt 0.666667 1.000000
vt 0.666667 0.500000
vt 0.500000 1.000000
vt 0.500000 0.500000
vt 0.333333 1.000000
vt 0.333333 0.500000
vt 0.457846 0.370000
vt 0.250000 0.490000
vt 0.042154 0.370000
vt 0.042154 0.130000
vt 0.250000 0.010000
vt 0.457846 0.130000
vt 0.166667 1.000000
vt 0.166667 0.500000
vt -0.000000 1.000000
vt -0.000000 0.500000
vt 0.607711 0.332150
vt 0.750000 0.414301
vt 0.750000 0.414301
vt 0.607711 0.332150
vt 0.892289 0.332150
vt 0.750000 0.490000
vt 0.957846 0.370000
vt 0.892289 0.167850
vt 0.957846 0.130000
vt 0.750000 0.085699
vt 0.750000 0.010000
vt 0.607711 0.167850
vt 0.542154 0.130000
vt 0.542154 0.370000
vt 0.892289 0.332150
vt 0.892289 0.167850
vt 0.750000 0.085699
vt 0.607711 0.167850
vn 0.5759 0.2977 -0.7614
vn 0.9484 0.3092 0.0699
vn 0.5987 0.3493 0.7208
vn -0.6091 0.3470 0.7131
vn -0.0016 0.9988 -0.0493
vn -0.9685 0.2482 -0.0185
vn -0.5997 0.2747 -0.7516
vn 0.6308 0.0393 0.7750
vn -0.2128 -0.9602 0.1811
vn -0.2515 -0.9623 0.1034
vn 0.0016 -0.9988 0.0493
vn 0.6407 -0.0368 -0.7669
vn -1.0000 -0.0019 -0.0063
vn 1.0000 0.0019 0.0063
vn -0.6308 -0.0393 -0.7750
vn -0.6407 0.0368 0.7669
usemtl None
s off
f 49/65/27 38/66/27 40/67/27 50/68/27
f 50/68/28 40/67/28 42/69/28 51/70/28
f 51/70/29 42/69/29 44/71/29 52/72/29
f 52/72/30 44/71/30 46/73/30 53/74/30
f 40/75/31 38/76/31 48/77/31 46/78/31 44/79/31 42/80/31
f 53/74/32 46/73/32 48/81/32 54/82/32
f 54/82/33 48/81/33 38/83/33 49/84/33
f 47/85/34 37/86/34 55/87/34 60/88/34
f 39/89/35 37/86/35 49/90/35 50/91/35
f 41/92/36 39/89/36 50/91/36 51/93/36
f 43/94/37 41/92/37 51/93/37 52/95/37
f 45/96/37 43/94/37 52/95/37 53/97/37
f 47/85/37 45/96/37 53/97/37 54/98/37
f 37/86/37 47/85/37 54/98/37 49/90/37
f 55/87/37 56/99/37 57/100/37 58/101/37 59/102/37 60/88/37
f 43/94/38 45/96/38 59/102/38 58/101/38
f 39/89/39 41/92/39 57/100/39 56/99/39
f 45/96/40 47/85/40 60/88/40 59/102/40
f 41/92/41 43/94/41 58/101/41 57/100/41
f 37/86/42 39/89/42 56/99/42 55/87/42
o Cylinder.003
v -0.161293 2.689507 -1.094600
v -0.156846 4.198212 -1.090208
v 0.517700 2.760509 -0.540471
v 0.390756 4.255475 -0.643308
v 0.487379 2.906722 0.527804
v 0.366303 4.373394 0.218247
v -0.221934 2.981933 1.041953
v -0.205752 4.434052 0.632904
v -0.900928 2.910931 0.487825
v -0.753354 4.376789 0.186004
v -0.870607 2.764718 -0.580451
v -0.728901 4.258869 -0.675551
v -0.147324 2.622141 -1.586792
v 0.925805 2.144989 -1.308737
v 0.923153 2.711353 1.045487
v -0.235904 3.049299 1.534146
v -1.227734 2.945583 0.724711
v -1.204926 2.516063 -1.001443
v -0.157295 3.263361 -1.173029
v 0.521698 3.334364 -0.618901
v 0.491378 3.480577 0.449376
v -0.217936 3.555788 0.963524
v -0.896929 3.484786 0.409396
v -0.866609 3.338573 -0.658880
vt 1.000000 0.500000
vt 1.000000 1.000000
vt 0.833333 1.000000
vt 0.833333 0.500000
vt 0.666667 1.000000
vt 0.666667 0.500000
vt 0.500000 1.000000
vt 0.500000 0.500000
vt 0.333333 1.000000
vt 0.333333 0.500000
vt 0.457846 0.370000
vt 0.250000 0.490000
vt 0.042154 0.370000
vt 0.042154 0.130000
vt 0.250000 0.010000
vt 0.457846 0.130000
vt 0.166667 1.000000
vt 0.166667 0.500000
vt -0.000000 1.000000
vt -0.000000 0.500000
vt 0.607711 0.332150
vt 0.750000 0.414301
vt 0.750000 0.414301
vt 0.607711 0.332150
vt 0.892289 0.332150
vt 0.750000 0.490000
vt 0.957846 0.370000
vt 0.892289 0.167850
vt 0.957846 0.130000
vt 0.750000 0.085699
vt 0.750000 0.010000
vt 0.607711 0.167850
vt 0.542154 0.130000
vt 0.542154 0.370000
vt 0.892289 0.332150
vt 0.892289 0.167850
vt 0.750000 0.085699
vt 0.607711 0.167850
vn 0.4552 0.3281 -0.8277
vn 0.9599 0.2757 -0.0506
vn 0.4890 0.4928 0.7197
vn -0.5928 0.4483 0.6690
vn 0.0069 0.9908 -0.1354
vn -0.9565 0.2813 -0.0770
vn -0.5086 0.2738 -0.8163
vn 0.5909 0.1052 0.7998
vn -0.3648 -0.8644 0.3461
vn -0.6624 -0.7347 0.1466
vn -0.2298 -0.9729 -0.0273
vn -0.0069 -0.9908 0.1354
vn 0.2509 -0.9471 0.1999
vn 0.1810 -0.9473 0.2643
vn 0.6353 -0.1089 -0.7645
vn -0.9996 0.0030 -0.0288
vn 0.9996 -0.0030 0.0288
vn -0.5909 -0.1052 -0.7998
vn -0.6353 0.1089 0.7645
usemtl None
s off
f 73/103/43 62/104/43 64/105/43 74/106/43
f 74/106/44 64/105/44 66/107/44 75/108/44
f 75/108/45 66/107/45 68/109/45 76/110/45
f 76/110/46 68/109/46 70/111/46 77/112/46
f 64/113/47 62/114/47 72/115/47 70/116/47 68/117/47 66/118/47
f 77/112/48 70/111/48 72/119/48 78/120/48
f 78/120/49 72/119/49 62/121/49 73/122/49
f 71/123/50 61/124/50 79/125/50 84/126/50
f 63/127/51 61/124/51 73/128/51 74/129/51
f 65/130/52 63/127/52 74/129/52 75/131/52
f 67/132/53 65/130/53 75/131/53 76/133/53
f 69/134/54 67/132/54 76/133/54 77/135/54
f 71/123/55 69/134/55 77/135/55 78/136/55
f 61/124/56 71/123/56 78/136/56 73/128/56
f 79/125/54 80/137/54 81/138/54 82/139/54 83/140/54 84/126/54
f 67/132/57 69/134/57 83/140/57 82/139/57
f 63/127/58 65/130/58 81/138/58 80/137/58
f 69/134/59 71/123/59 84/126/59 83/140/59
f 65/130/60 67/132/60 82/139/60 81/138/60
f 61/124/61 63/127/61 80/137/61 79/125/61
o Cylinder.004
v -0.255822 3.878829 -1.214097
v -0.197427 5.306489 -1.276453
v 0.557857 3.940654 -0.732154
v 0.458798 5.356350 -0.887770
v 0.606783 4.131605 0.294440
v 0.498257 5.510351 -0.059831
v -0.157969 4.260732 0.839091
v -0.118509 5.614491 0.379425
v -0.971648 4.198907 0.357148
v -0.774734 5.564629 -0.009258
v -1.020574 4.007955 -0.669446
v -0.814192 5.410628 -0.837197
v -0.278364 3.790850 -1.687085
v 0.910205 3.881160 -0.983094
v 0.981674 4.160090 0.516488
v -0.135427 4.348710 1.312079
v -1.349984 3.977141 0.605657
v -1.395465 3.979470 -0.891494
v -0.236856 4.417912 -1.315273
v 0.576823 4.479737 -0.833330
v 0.625749 4.670689 0.193264
v -0.139003 4.799815 0.737915
v -0.952682 4.737990 0.255972
v -1.001608 4.547038 -0.770622
vt 1.000000 0.500000
vt 1.000000 1.000000
vt 0.833333 1.000000
vt 0.833333 0.500000
vt 0.666667 1.000000
vt 0.666667 0.500000
vt 0.500000 1.000000
vt 0.500000 0.500000
vt 0.333333 1.000000
vt 0.333333 0.500000
vt 0.457846 0.370000
vt 0.250000 0.490000
vt 0.042154 0.370000
vt 0.042154 0.130000
vt 0.250000 0.010000
vt 0.457846 0.130000
vt 0.166667 1.000000
vt 0.166667 0.500000
vt -0.000000 1.000000
vt -0.000000 0.500000
vt 0.607711 0.332150
vt 0.750000 0.414301
vt 0.750000 0.414301
vt 0.607711 0.332150
vt 0.892289 0.332150
vt 0.750000 0.490000
vt 0.957846 0.370000
vt 0.892289 0.167850
vt 0.957846 0.130000
vt 0.750000 0.085699
vt 0.750000 0.010000
vt 0.607711 0.167850
vt 0.542154 0.130000
vt 0.542154 0.370000
vt 0.892289 0.332150
vt 0.892289 0.167850
vt 0.750000 0.085699
vt 0.607711 0.167850
vn 0.4874 0.2040 -0.8490
vn 0.9496 0.2971 -0.1005
vn 0.5598 0.4867 0.6707
vn -0.5202 0.4881 0.7008
vn 0.0346 0.9823 -0.1844
vn -0.9331 0.3595 0.0106
vn -0.5340 0.2475 -0.8084
vn 0.5896 0.1289 0.7973
vn -0.0346 -0.9823 0.1844
vn 0.2422 -0.9684 -0.0601
vn 0.3166 -0.9467 0.0589
vn 0.5115 -0.1759 -0.8411
vn -0.9983 0.0426 0.0397
vn 0.9983 -0.0426 -0.0397
vn -0.5896 -0.1289 -0.7973
vn -0.5115 0.1759 0.8411
usemtl None
s off
f 97/141/62 86/142/62 88/143/62 98/144/62
f 98/144/63 88/143/63 90/145/63 99/146/63
f 99/146/64 90/145/64 92/147/64 100/148/64
f 100/148/65 92/147/65 94/149/65 101/150/65
f 88/151/66 86/152/66 96/153/66 94/154/66 92/155/66 90/156/66
f 101/150/67 94/149/67 96/157/67 102/158/67
f 102/158/68 96/157/68 86/159/68 97/160/68
f 95/161/69 85/162/69 103/163/69 108/164/69
f 87/165/70 85/162/70 97/166/70 98/167/70
f 89/168/70 87/165/70 98/167/70 99/169/70
f 91/170/70 89/168/70 99/169/70 100/171/70
f 93/172/71 91/170/71 100/171/71 101/173/71
f 95/161/72 93/172/72 101/173/72 102/174/72
f 85/162/70 95/161/70 102/174/70 97/166/70
f 103/163/70 104/175/70 105/176/70 106/177/70 107/178/70 108/164/70
f 91/170/73 93/172/73 107/178/73 106/177/73
f 87/165/74 89/168/74 105/176/74 104/175/74
f 93/172/75 95/161/75 108/164/75 107/178/75
f 89/168/76 91/170/76 106/177/76 105/176/76
f 85/162/77 87/165/77 104/175/77 103/163/77
o Cylinder.005
v -0.340767 5.127996 -1.202101
v -0.240855 6.512466 -0.867886
v 0.394617 5.198708 -0.788984
v -0.027588 6.532973 -0.748079
v 0.457822 5.422908 0.115125
v -0.009258 6.597993 -0.485880
v -0.214355 5.576398 0.606117
v -0.204195 6.642507 -0.343488
v -0.949738 5.505687 0.192999
v -0.417462 6.622000 -0.463295
v -1.012944 5.281486 -0.711109
v -0.435792 6.556980 -0.725494
v -0.369888 5.024699 -1.618656
v 0.704313 5.127989 -1.015201
v 0.796640 5.455488 0.305463
v -0.185234 5.679696 1.022672
v -1.259434 5.576405 0.419217
v -1.374955 5.003234 -0.956550
v -0.319433 5.602957 -1.321373
v 0.415950 5.673669 -0.908256
v 0.479156 5.897870 -0.004147
v -0.193021 6.051359 0.486844
v -0.928404 5.980648 0.073727
v -0.991610 5.756447 -0.830382
vt 1.000000 0.500000
vt 1.000000 1.000000
vt 0.833333 1.000000
vt 0.833333 0.500000
vt 0.666667 1.000000
vt 0.666667 0.500000
vt 0.500000 1.000000
vt 0.500000 0.500000
vt 0.333333 1.000000
vt 0.333333 0.500000
vt 0.457846 0.370000
vt 0.250000 0.490000
vt 0.042154 0.370000
vt 0.042154 0.130000
vt 0.250000 0.010000
vt 0.457846 0.130000
vt 0.166667 1.000000
vt 0.166667 0.500000
vt -0.000000 1.000000
vt -0.000000 0.500000
vt 0.607711 0.332150
vt 0.750000 0.414301
vt 0.750000 0.414301
vt 0.607711 0.332150
vt 0.892289 0.332150
vt 0.750000 0.490000
vt 0.957846 0.370000
vt 0.892289 0.167850
vt 0.957846 0.130000
vt 0.750000 0.085699
vt 0.750000 0.010000
vt 0.607711 0.167850
vt 0.542154 0.130000
vt 0.542154 0.370000
vt 0.892289 0.332150
vt 0.892289 0.167850
vt 0.750000 0.085699
vt 0.607711 0.167850
vn 0.4255 0.3780 -0.8222
vn 0.8581 0.4811 -0.1793
vn 0.5172 0.7030 0.4882
vn -0.3746 0.7554 0.5376
vn 0.0435 0.9690 -0.2433
vn -0.8328 0.5354 -0.1406
vn -0.4998 0.4200 -0.7575
vn 0.6062 0.1680 0.7774
vn -0.0435 -0.9690 0.2433
vn 0.2740 -0.9143 0.2983
vn 0.2022 -0.8954 0.3966
vn 0.4932 -0.2326 -0.8382
vn -0.9968 0.0586 0.0551
vn 0.9968 -0.0586 -0.0551
vn -0.6062 -0.1680 -0.7774
vn -0.4932 0.2326 0.8382
usemtl None
s off
f 121/179/78 110/180/78 112/181/78 122/182/78
f 122/182/79 112/181/79 114/183/79 123/184/79
f 123/184/80 114/183/80 116/185/80 124/186/80
f 124/186/81 116/185/81 118/187/81 125/188/81
f 112/189/82 110/190/82 120/191/82 118/192/82 116/193/82 114/194/82
f 125/188/83 118/187/83 120/195/83 126/196/83
f 126/196/84 120/195/84 110/197/84 121/198/84
f 119/199/85 109/200/85 127/201/85 132/202/85
f 111/203/86 109/200/86 121/204/86 122/205/86
f 113/206/86 111/203/86 122/205/86 123/207/86
f 115/208/86 113/206/86 123/207/86 124/209/86
f 117/210/86 115/208/86 124/209/86 125/211/86
f 119/199/87 117/210/87 125/211/87 126/212/87
f 109/200/88 119/199/88 126/212/88 121/204/88
f 127/201/86 128/213/86 129/214/86 130/215/86 131/216/86 132/202/86
f 115/208/89 117/210/89 131/216/89 130/215/89
f 111/203/90 113/206/90 129/214/90 128/213/90
f 117/210/91 119/199/91 132/202/91 131/216/91
f 113/206/92 115/208/92 130/215/92 129/214/92
f 109/200/93 111/203/93 128/213/93 127/201/93
