# Blender v2.82 (sub 7) OBJ File: ''
# www.blender.org
mtllib Wheels.mtl
o Cube
v 0.511047 0.420934 -0.420934
v 0.511047 -0.420934 -0.420934
v 0.511047 0.420934 0.420934
v 0.511047 -0.420934 0.420934
v -0.511047 0.399941 -0.399941
v -0.511047 -0.399941 -0.399941
v -0.511047 0.399941 0.399941
v -0.511047 -0.399941 0.399941
v -0.511047 -0.447677 -0.266843
v -0.511047 -0.480631 -0.000000
v -0.511047 -0.447677 0.266843
v 0.511047 -0.572933 -0.572933
v 0.000000 -0.609568 -0.609568
v -0.511047 -0.572933 -0.572933
v 0.511047 0.273097 -0.473957
v 0.511047 0.000000 -0.507683
v 0.511047 -0.273097 -0.473957
v -0.511047 -0.266843 0.447677
v -0.511047 -0.000000 0.480631
v -0.511047 0.266843 0.447677
v 0.511047 0.273097 0.473957
v 0.511047 0.000000 0.507683
v 0.511047 -0.273097 0.473957
v -0.511047 0.266843 -0.447677
v -0.511047 -0.000000 -0.480631
v -0.511047 -0.266843 -0.447677
v 0.511047 0.572933 0.572933
v -0.000000 0.609568 0.609568
v -0.511047 0.572933 0.572933
v 0.511047 0.473957 -0.273097
v 0.511047 0.507683 -0.000000
v 0.511047 0.473957 0.273097
v -0.511047 -0.572933 0.572933
v -0.000000 -0.609568 0.609568
v 0.511047 -0.572933 0.572933
v -0.511047 0.447677 0.266843
v -0.511047 0.480631 0.000000
v -0.511047 0.447677 -0.266843
v -0.511047 0.572933 -0.572933
v 0.000000 0.609568 -0.609568
v 0.511047 0.572933 -0.572933
v 0.511047 -0.473957 0.273097
v 0.511047 -0.507683 0.000000
v 0.511047 -0.473957 -0.273097
v 0.511047 0.728990 -0.316157
v 0.000000 0.781829 -0.333140
v -0.511047 0.728990 -0.316157
v 0.511047 0.781829 0.000000
v -0.000000 0.839506 -0.000000
v -0.511047 0.781829 -0.000000
v 0.511047 0.728990 0.316157
v -0.000000 0.781829 0.333140
v -0.511047 0.728990 0.316157
v 0.511047 -0.316157 0.728990
v 0.511047 -0.000000 0.781829
v 0.511047 0.316157 0.728990
v -0.000000 -0.333140 0.781829
v 0.000000 0.000000 0.839506
v 0.000000 0.333140 0.781829
v -0.511047 -0.316157 0.728990
v -0.511047 0.000000 0.781829
v -0.511047 0.316157 0.728990
v -0.511047 -0.728990 -0.316157
v -0.000000 -0.781829 -0.333140
v 0.511047 -0.728990 -0.316157
v -0.511047 -0.781829 0.000000
v 0.000000 -0.839506 0.000000
v 0.511047 -0.781829 -0.000000
v -0.511047 -0.728990 0.316157
v 0.000000 -0.781829 0.333140
v 0.511047 -0.728990 0.316157
v -0.511047 -0.316157 -0.728990
v -0.511047 -0.000000 -0.781829
v -0.511047 0.316157 -0.728990
v 0.000000 -0.333140 -0.781829
v 0.000000 0.000000 -0.839506
v -0.000000 0.333140 -0.781829
v 0.511047 -0.316157 -0.728990
v 0.511047 0.000000 -0.781829
v 0.511047 0.316157 -0.728990
v -0.511047 -0.500000 -0.500000
v -0.511047 -0.572933 -0.296650
v -0.511047 -0.609568 -0.000000
v -0.511047 -0.572933 0.296650
v -0.511047 -0.500000 0.500000
v -0.511047 -0.296650 0.572933
v -0.511047 -0.000000 0.609568
v -0.511047 0.296650 0.572933
v -0.511047 0.500000 0.500000
v -0.511047 0.500000 -0.500000
v -0.511047 0.296650 -0.572933
v -0.511047 -0.000000 -0.609568
v -0.511047 -0.296650 -0.572933
v -0.511047 0.572933 0.296650
v -0.511047 0.609568 -0.000000
v -0.511047 0.572933 -0.296650
v -0.340409 -0.316157 0.316157
v -0.340409 -0.000000 0.333140
v -0.340409 0.316157 0.316157
v -0.340409 -0.333140 -0.000000
v -0.340409 0.000000 -0.000000
v -0.340409 0.333140 0.000000
v -0.340409 -0.316157 -0.316157
v -0.340409 0.000000 -0.333140
v -0.340409 0.316157 -0.316157
v -0.340409 -0.266843 0.447677
v -0.340409 -0.000000 0.480631
v -0.340409 0.266843 0.447677
v -0.340409 0.447677 0.266843
v -0.340409 0.480631 0.000000
v -0.340409 0.447677 -0.266843
v -0.340409 0.266843 -0.447677
v -0.340409 -0.000000 -0.480631
v -0.340409 -0.266843 -0.447677
v -0.340409 -0.447677 -0.266843
v -0.340409 -0.480631 -0.000000
v -0.340409 -0.447677 0.266843
v -0.340409 -0.399941 -0.399941
v -0.340409 -0.399941 0.399941
v -0.340409 0.399941 0.399941
v -0.340409 0.399941 -0.399941
v 0.511047 0.500000 -0.500000
v 0.511047 0.296650 -0.572933
v 0.511047 0.000000 -0.609568
v 0.511047 -0.296650 -0.572933
v 0.511047 -0.500000 -0.500000
v 0.511047 0.500000 0.500000
v 0.511047 0.296650 0.572933
v 0.511047 0.000000 0.609568
v 0.511047 -0.296650 0.572933
v 0.511047 -0.500000 0.500000
v 0.511047 0.572933 -0.296650
v 0.511047 0.609568 -0.000000
v 0.511047 0.572933 0.296650
v 0.511047 -0.572933 0.296650
v 0.511047 -0.609568 -0.000000
v 0.511047 -0.572933 -0.296650
v 0.254376 -0.316157 -0.316157
v 0.254376 -0.000000 -0.333140
v 0.254376 0.316157 -0.316157
v 0.254376 -0.333140 0.000000
v 0.254376 -0.000000 -0.000000
v 0.254376 0.333140 -0.000000
v 0.254376 -0.316157 0.316157
v 0.254376 0.000000 0.333140
v 0.254376 0.316157 0.316157
v 0.254376 -0.273097 -0.473957
v 0.254376 0.000000 -0.507683
v 0.254376 0.273097 -0.473957
v 0.254376 0.473957 -0.273097
v 0.254376 0.507683 -0.000000
v 0.254376 0.473957 0.273097
v 0.254376 0.273097 0.473957
v 0.254376 0.000000 0.507683
v 0.254376 -0.273097 0.473957
v 0.254376 -0.473957 0.273097
v 0.254376 -0.507683 0.000000
v 0.254376 -0.473957 -0.273097
v 0.254376 0.420934 -0.420934
v 0.254376 -0.420934 -0.420934
v 0.254376 0.420934 0.420934
v 0.254376 -0.420934 0.420934
vt 0.696045 0.554579
vt 0.752821 0.559896
vt 0.751736 0.625000
vt 0.692491 0.625000
vt 0.812853 0.562174
vt 0.812717 0.625000
vt 0.752821 0.690104
vt 0.696045 0.695421
vt 0.812853 0.687826
vt 0.666667 0.458333
vt 0.705078 0.482422
vt 0.637912 0.550456
vt 0.755208 0.494792
vt 0.813151 0.499349
vt 0.875000 0.500000
vt 0.875000 0.562500
vt 0.875000 0.625000
vt 0.875000 0.687500
vt 0.875000 0.750000
vt 0.813151 0.750651
vt 0.755208 0.755208
vt 0.705078 0.767578
vt 0.637912 0.699544
vt 0.666667 0.791667
vt 0.631945 0.625000
vt 0.429579 0.821045
vt 0.500000 0.817491
vt 0.500000 0.876736
vt 0.434896 0.877821
vt 0.570421 0.821045
vt 0.565104 0.877821
vt 0.500000 0.937717
vt 0.437174 0.937853
vt 0.562826 0.937853
vt 0.333333 0.791667
vt 0.425456 0.762912
vt 0.357422 0.830078
vt 0.500000 0.756944
vt 0.574544 0.762912
vt 0.642578 0.830078
vt 0.630208 0.880208
vt 0.625651 0.938151
vt 0.625000 1.000000
vt 0.562500 1.000000
vt 0.500000 1.000000
vt 0.437500 1.000000
vt 0.374349 0.938151
vt 0.375000 1.000000
vt 0.369792 0.880208
vt 0.554459 0.218709
vt 0.500000 0.220847
vt 0.500000 0.220847
vt 0.554459 0.218709
vt 0.406291 0.179458
vt 0.404153 0.125000
vt 0.404153 0.125000
vt 0.406291 0.179458
vt 0.587485 0.212485
vt 0.587485 0.212485
vt 0.592128 0.176220
vt 0.592128 0.176220
vt 0.412515 0.212485
vt 0.412515 0.212485
vt 0.551220 0.032872
vt 0.587485 0.037515
vt 0.587485 0.037515
vt 0.551220 0.032872
vt 0.595847 0.125000
vt 0.595847 0.125000
vt 0.500000 0.029153
vt 0.500000 0.029153
vt 0.593709 0.070542
vt 0.593709 0.070542
vt 0.445542 0.031291
vt 0.445542 0.031291
vt 0.412515 0.037515
vt 0.412515 0.037515
vt 0.448780 0.217128
vt 0.448780 0.217128
vt 0.407872 0.073780
vt 0.407872 0.073780
vt 0.187147 0.562174
vt 0.247179 0.559896
vt 0.248264 0.625000
vt 0.187283 0.625000
vt 0.303955 0.554579
vt 0.307509 0.625000
vt 0.247179 0.690104
vt 0.187147 0.687826
vt 0.303955 0.695421
vt 0.125000 0.500000
vt 0.186849 0.499349
vt 0.125000 0.562500
vt 0.244792 0.494792
vt 0.294922 0.482422
vt 0.333333 0.458333
vt 0.362088 0.550456
vt 0.368056 0.625000
vt 0.362088 0.699544
vt 0.294922 0.767578
vt 0.244792 0.755208
vt 0.186849 0.750651
vt 0.125000 0.687500
vt 0.125000 0.750000
vt 0.125000 0.625000
vt 0.614786 0.739786
vt 0.565456 0.735657
vt 0.565456 0.735657
vt 0.614786 0.739786
vt 0.606707 0.685638
vt 0.606707 0.685638
vt 0.385214 0.510214
vt 0.439362 0.518293
vt 0.439362 0.518293
vt 0.385214 0.510214
vt 0.608109 0.625000
vt 0.608109 0.625000
vt 0.500000 0.516891
vt 0.500000 0.516891
vt 0.610657 0.559544
vt 0.610657 0.559544
vt 0.565456 0.514343
vt 0.565456 0.514343
vt 0.614786 0.510214
vt 0.614786 0.510214
vt 0.393293 0.564362
vt 0.393293 0.564362
vt 0.439362 0.731707
vt 0.385214 0.739786
vt 0.385214 0.739786
vt 0.439362 0.731707
vt 0.391892 0.625000
vt 0.391892 0.625000
vt 0.500000 0.733109
vt 0.500000 0.733109
vt 0.389343 0.690456
vt 0.389343 0.690456
vt 0.437174 0.312147
vt 0.500000 0.312283
vt 0.500000 0.373264
vt 0.434896 0.372179
vt 0.562826 0.312147
vt 0.565104 0.372179
vt 0.500000 0.432509
vt 0.429579 0.428955
vt 0.570421 0.428955
vt 0.375000 0.250000
vt 0.437500 0.250000
vt 0.374349 0.311849
vt 0.500000 0.250000
vt 0.562500 0.250000
vt 0.625000 0.250000
vt 0.625651 0.311849
vt 0.630208 0.369792
vt 0.642578 0.419922
vt 0.574544 0.487088
vt 0.500000 0.493056
vt 0.425456 0.487088
vt 0.357422 0.419922
vt 0.369792 0.369792
vt 0.375000 0.187500
vt 0.375000 0.125000
vt 0.375000 0.062500
vt 0.375000 0.000000
vt 0.437500 0.000000
vt 0.500000 0.000000
vt 0.562500 0.000000
vt 0.625000 0.000000
vt 0.625000 0.062500
vt 0.625000 0.125000
vt 0.625000 0.187500
vt 0.437500 0.062500
vt 0.500000 0.062500
vt 0.500000 0.125000
vt 0.437500 0.125000
vt 0.562500 0.062500
vt 0.562500 0.125000
vt 0.500000 0.187500
vt 0.437500 0.187500
vt 0.562500 0.187500
vt 0.429742 0.554742
vt 0.500000 0.557726
vt 0.500000 0.625000
vt 0.432726 0.625000
vt 0.570258 0.554742
vt 0.567274 0.625000
vt 0.500000 0.692274
vt 0.429742 0.695258
vt 0.570258 0.695258
vn 0.7058 0.6627 -0.2501
vn 0.0000 0.9360 -0.3519
vn 0.0000 1.0000 0.0000
vn 0.7117 0.7024 0.0000
vn -0.7058 0.6627 -0.2501
vn -0.7117 0.7024 0.0000
vn 0.0000 0.9360 0.3519
vn 0.7058 0.6627 0.2501
vn -0.7058 0.6627 0.2501
vn 1.0000 0.0000 0.0000
vn 0.6954 0.5082 -0.5082
vn 0.0000 0.7071 -0.7071
vn -0.6954 0.5082 -0.5082
vn -1.0000 0.0000 0.0000
vn -0.6954 0.5082 0.5082
vn 0.0000 0.7071 0.7071
vn 0.6954 0.5082 0.5082
vn 0.7058 -0.2501 0.6627
vn 0.7117 0.0000 0.7024
vn 0.0000 0.0000 1.0000
vn 0.0000 -0.3519 0.9360
vn 0.7058 0.2501 0.6627
vn 0.0000 0.3519 0.9360
vn -0.7117 0.0000 0.7024
vn -0.7058 -0.2501 0.6627
vn -0.7058 0.2501 0.6627
vn 0.6954 -0.5082 0.5082
vn -0.6954 -0.5082 0.5082
vn 0.0000 -0.7071 0.7071
vn -0.7328 -0.1575 0.6619
vn -0.7357 0.0000 0.6772
vn -0.6805 0.0000 0.7327
vn -0.6830 -0.1691 0.7105
vn -0.7328 0.6619 0.1575
vn -0.7357 0.6772 0.0000
vn -0.6805 0.7327 0.0000
vn -0.6830 0.7105 0.1691
vn -0.8169 -0.4078 0.4078
vn -0.6225 -0.5534 0.5534
vn -0.7328 -0.6619 0.1575
vn -0.6830 -0.7105 0.1691
vn -0.8169 0.4078 0.4078
vn -0.6225 0.5534 0.5534
vn -0.7328 -0.1575 -0.6619
vn -0.8169 -0.4078 -0.4078
vn -0.6225 -0.5534 -0.5534
vn -0.6830 -0.1691 -0.7105
vn -0.7357 -0.6772 0.0000
vn -0.6805 -0.7327 0.0000
vn -0.7357 0.0000 -0.6772
vn -0.6805 0.0000 -0.7327
vn -0.7328 -0.6619 -0.1575
vn -0.6830 -0.7105 -0.1691
vn -0.7328 0.1575 -0.6619
vn -0.6830 0.1691 -0.7105
vn -0.8169 0.4078 -0.4078
vn -0.6225 0.5534 -0.5534
vn -0.7328 0.1575 0.6619
vn -0.6830 0.1691 0.7105
vn -0.7328 0.6619 -0.1575
vn -0.6830 0.7105 -0.1691
vn -0.7058 -0.6627 -0.2501
vn 0.0000 -0.9360 -0.3519
vn 0.0000 -1.0000 0.0000
vn -0.7117 -0.7024 0.0000
vn 0.7058 -0.6627 -0.2501
vn 0.7117 -0.7024 0.0000
vn 0.0000 -0.9360 0.3519
vn -0.7058 -0.6627 0.2501
vn 0.7058 -0.6627 0.2501
vn -0.6954 -0.5082 -0.5082
vn 0.0000 -0.7071 -0.7071
vn 0.6954 -0.5082 -0.5082
vn 0.8169 -0.4078 -0.4078
vn 0.7328 -0.1575 -0.6619
vn 0.6830 -0.1691 -0.7105
vn 0.6225 -0.5534 -0.5534
vn 0.7328 -0.6619 -0.1575
vn 0.6830 -0.7105 -0.1691
vn 0.8169 0.4078 0.4078
vn 0.7328 0.1575 0.6619
vn 0.6830 0.1691 0.7105
vn 0.6225 0.5534 0.5534
vn 0.7357 -0.6772 0.0000
vn 0.6805 -0.7327 0.0000
vn 0.7357 0.0000 0.6772
vn 0.6805 0.0000 0.7327
vn 0.7328 -0.6619 0.1575
vn 0.6830 -0.7105 0.1691
vn 0.7328 -0.1575 0.6619
vn 0.6830 -0.1691 0.7105
vn 0.8169 -0.4078 0.4078
vn 0.6225 -0.5534 0.5534
vn 0.7328 0.6619 0.1575
vn 0.6830 0.7105 0.1691
vn 0.7328 0.1575 -0.6619
vn 0.8169 0.4078 -0.4078
vn 0.6225 0.5534 -0.5534
vn 0.6830 0.1691 -0.7105
vn 0.7357 0.6772 0.0000
vn 0.6805 0.7327 0.0000
vn 0.7357 0.0000 -0.6772
vn 0.6805 0.0000 -0.7327
vn 0.7328 0.6619 -0.1575
vn 0.6830 0.7105 -0.1691
vn -0.7058 -0.2501 -0.6627
vn -0.7117 0.0000 -0.7024
vn 0.0000 0.0000 -1.0000
vn 0.0000 -0.3519 -0.9360
vn -0.7058 0.2501 -0.6627
vn 0.0000 0.3519 -0.9360
vn 0.7117 0.0000 -0.7024
vn 0.7058 -0.2501 -0.6627
vn 0.7058 0.2501 -0.6627
usemtl Material
s 1
f 45/1/1 46/2/2 49/3/3 48/4/4
f 46/2/2 47/5/5 50/6/6 49/3/3
f 48/4/4 49/3/3 52/7/7 51/8/8
f 49/3/3 50/6/6 53/9/9 52/7/7
f 122/10/10 41/11/11 45/1/1 132/12/10
f 41/11/11 40/13/12 46/2/2 45/1/1
f 40/13/12 39/14/13 47/5/5 46/2/2
f 39/14/13 90/15/14 96/16/14 47/5/5
f 47/5/5 96/16/14 95/17/14 50/6/6
f 50/6/6 95/17/14 94/18/14 53/9/9
f 53/9/9 94/18/14 89/19/14 29/20/15
f 52/7/7 53/9/9 29/20/15 28/21/16
f 51/8/8 52/7/7 28/21/16 27/22/17
f 134/23/10 51/8/8 27/22/17 127/24/10
f 133/25/10 48/4/4 51/8/8 134/23/10
f 132/12/10 45/1/1 48/4/4 133/25/10
f 54/26/18 55/27/19 58/28/20 57/29/21
f 55/27/19 56/30/22 59/31/23 58/28/20
f 57/29/21 58/28/20 61/32/24 60/33/25
f 58/28/20 59/31/23 62/34/26 61/32/24
f 131/35/10 130/36/10 54/26/18 35/37/27
f 130/36/10 129/38/10 55/27/19 54/26/18
f 129/38/10 128/39/10 56/30/22 55/27/19
f 128/39/10 127/24/10 27/40/17 56/30/22
f 56/30/22 27/40/17 28/41/16 59/31/23
f 59/31/23 28/41/16 29/42/15 62/34/26
f 62/34/26 29/42/15 89/43/14 88/44/14
f 61/32/24 62/34/26 88/44/14 87/45/14
f 60/33/25 61/32/24 87/45/14 86/46/14
f 33/47/28 60/33/25 86/46/14 85/48/14
f 34/49/29 57/29/21 60/33/25 33/47/28
f 35/37/27 54/26/18 57/29/21 34/49/29
f 24/50/30 25/51/31 113/52/32 112/53/33
f 9/54/34 10/55/35 116/56/36 115/57/37
f 5/58/38 24/50/30 112/53/33 121/59/39
f 38/60/40 5/58/38 121/59/39 111/61/41
f 6/62/42 9/54/34 115/57/37 118/63/43
f 20/64/44 7/65/45 120/66/46 108/67/47
f 37/68/48 38/60/40 111/61/41 110/69/49
f 19/70/50 20/64/44 108/67/47 107/71/51
f 36/72/52 37/68/48 110/69/49 109/73/53
f 18/74/54 19/70/50 107/71/51 106/75/55
f 7/65/45 36/72/52 109/73/53 120/66/46
f 8/76/56 18/74/54 106/75/55 119/77/57
f 26/78/58 6/62/42 118/63/43 114/79/59
f 11/80/60 8/76/56 119/77/57 117/81/61
f 25/51/31 26/78/58 114/79/59 113/52/32
f 10/55/35 11/80/60 117/81/61 116/56/36
f 63/82/62 64/83/63 67/84/64 66/85/65
f 64/83/63 65/86/66 68/87/67 67/84/64
f 66/85/65 67/84/64 70/88/68 69/89/69
f 67/84/64 68/87/67 71/90/70 70/88/68
f 81/91/14 14/92/71 63/82/62 82/93/14
f 14/92/71 13/94/72 64/83/63 63/82/62
f 13/94/72 12/95/73 65/86/66 64/83/63
f 12/95/73 126/96/10 137/97/10 65/86/66
f 65/86/66 137/97/10 136/98/10 68/87/67
f 68/87/67 136/98/10 135/99/10 71/90/70
f 71/90/70 135/99/10 131/35/10 35/100/27
f 70/88/68 71/90/70 35/100/27 34/101/29
f 69/89/69 70/88/68 34/101/29 33/102/28
f 84/103/14 69/89/69 33/102/28 85/104/14
f 83/105/14 66/85/65 69/89/69 84/103/14
f 82/93/14 63/82/62 66/85/65 83/105/14
f 3/106/74 21/107/75 153/108/76 161/109/77
f 32/110/78 3/106/74 161/109/77 152/111/79
f 2/112/80 17/113/81 147/114/82 160/115/83
f 31/116/84 32/110/78 152/111/79 151/117/85
f 17/113/81 16/118/86 148/119/87 147/114/82
f 30/120/88 31/116/84 151/117/85 150/121/89
f 16/118/86 15/122/90 149/123/91 148/119/87
f 1/124/92 30/120/88 150/121/89 159/125/93
f 44/126/94 2/112/80 160/115/83 158/127/95
f 15/122/90 1/124/92 159/125/93 149/123/91
f 23/128/96 4/129/97 162/130/98 155/131/99
f 43/132/100 44/126/94 158/127/95 157/133/101
f 22/134/102 23/128/96 155/131/99 154/135/103
f 42/136/104 43/132/100 157/133/101 156/137/105
f 21/107/75 22/134/102 154/135/103 153/108/76
f 4/129/97 42/136/104 156/137/105 162/130/98
f 72/138/106 73/139/107 76/140/108 75/141/109
f 73/139/107 74/142/110 77/143/111 76/140/108
f 75/141/109 76/140/108 79/144/112 78/145/113
f 76/140/108 77/143/111 80/146/114 79/144/112
f 81/147/14 93/148/14 72/138/106 14/149/71
f 93/148/14 92/150/14 73/139/107 72/138/106
f 92/150/14 91/151/14 74/142/110 73/139/107
f 91/151/14 90/152/14 39/153/13 74/142/110
f 74/142/110 39/153/13 40/154/12 77/143/111
f 77/143/111 40/154/12 41/155/11 80/146/114
f 80/146/114 41/155/11 122/10/10 123/156/10
f 79/144/112 80/146/114 123/156/10 124/157/10
f 78/145/113 79/144/112 124/157/10 125/158/10
f 12/159/73 78/145/113 125/158/10 126/96/10
f 13/160/72 75/141/109 78/145/113 12/159/73
f 14/149/71 72/138/106 75/141/109 13/160/72
f 9/54/34 6/62/42 81/147/14 82/161/14
f 10/55/35 9/54/34 82/161/14 83/162/14
f 11/80/60 10/55/35 83/162/14 84/163/14
f 8/76/56 11/80/60 84/163/14 85/164/14
f 18/74/54 8/76/56 85/164/14 86/165/14
f 19/70/50 18/74/54 86/165/14 87/166/14
f 20/64/44 19/70/50 87/166/14 88/167/14
f 7/65/45 20/64/44 88/167/14 89/168/14
f 24/50/30 5/58/38 90/152/14 91/151/14
f 25/51/31 24/50/30 91/151/14 92/150/14
f 26/78/58 25/51/31 92/150/14 93/148/14
f 6/62/42 26/78/58 93/148/14 81/147/14
f 36/72/52 7/65/45 89/168/14 94/169/14
f 37/68/48 36/72/52 94/169/14 95/170/14
f 38/60/40 37/68/48 95/170/14 96/171/14
f 5/58/38 38/60/40 96/171/14 90/152/14
f 97/172/14 98/173/14 101/174/14 100/175/14
f 98/173/14 99/176/14 102/177/14 101/174/14
f 100/175/14 101/174/14 104/178/14 103/179/14
f 101/174/14 102/177/14 105/180/14 104/178/14
f 119/77/57 106/75/55 97/172/14 117/81/61
f 106/75/55 107/71/51 98/173/14 97/172/14
f 107/71/51 108/67/47 99/176/14 98/173/14
f 108/67/47 120/66/46 109/73/53 99/176/14
f 99/176/14 109/73/53 110/69/49 102/177/14
f 102/177/14 110/69/49 111/61/41 105/180/14
f 105/180/14 111/61/41 121/59/39 112/53/33
f 104/178/14 105/180/14 112/53/33 113/52/32
f 103/179/14 104/178/14 113/52/32 114/79/59
f 115/57/37 103/179/14 114/79/59 118/63/43
f 116/56/36 100/175/14 103/179/14 115/57/37
f 117/81/61 97/172/14 100/175/14 116/56/36
f 1/124/92 15/122/90 123/156/10 122/10/10
f 15/122/90 16/118/86 124/157/10 123/156/10
f 16/118/86 17/113/81 125/158/10 124/157/10
f 17/113/81 2/112/80 126/96/10 125/158/10
f 21/107/75 3/106/74 127/24/10 128/39/10
f 22/134/102 21/107/75 128/39/10 129/38/10
f 23/128/96 22/134/102 129/38/10 130/36/10
f 4/129/97 23/128/96 130/36/10 131/35/10
f 30/120/88 1/124/92 122/10/10 132/12/10
f 31/116/84 30/120/88 132/12/10 133/25/10
f 32/110/78 31/116/84 133/25/10 134/23/10
f 3/106/74 32/110/78 134/23/10 127/24/10
f 42/136/104 4/129/97 131/35/10 135/99/10
f 43/132/100 42/136/104 135/99/10 136/98/10
f 44/126/94 43/132/100 136/98/10 137/97/10
f 2/112/80 44/126/94 137/97/10 126/96/10
f 138/181/10 139/182/10 142/183/10 141/184/10
f 139/182/10 140/185/10 143/186/10 142/183/10
f 141/184/10 142/183/10 145/187/10 144/188/10
f 142/183/10 143/186/10 146/189/10 145/187/10
f 160/115/83 147/114/82 138/181/10 158/127/95
f 147/114/82 148/119/87 139/182/10 138/181/10
f 148/119/87 149/123/91 140/185/10 139/182/10
f 149/123/91 159/125/93 150/121/89 140/185/10
f 140/185/10 150/121/89 151/117/85 143/186/10
f 143/186/10 151/117/85 152/111/79 146/189/10
f 146/189/10 152/111/79 161/109/77 153/108/76
f 145/187/10 146/189/10 153/108/76 154/135/103
f 144/188/10 145/187/10 154/135/103 155/131/99
f 156/137/105 144/188/10 155/131/99 162/130/98
f 157/133/101 141/184/10 144/188/10 156/137/105
f 158/127/95 138/181/10 141/184/10 157/133/101
